<ttFont>
<head>
    <!-- Most of this table will be recalculated by the compiler -->
    <tableVersion value="1.0"/>
    <fontRevision value="1.006"/>
    <checkSumAdjustment value="0x266ca009"/>
    <magicNumber value="0x5f0f3cf5"/>
    <flags value="00000000 00000011"/>
    <unitsPerEm value="750"/>
    <created value="Tue Mar 17 02:09:41 2020"/>
    <modified value="Tue Mar 17 02:09:41 2020"/>
    <xMin value="-242"/>
    <yMin value="-250"/>
    <xMax value="750"/>
    <yMax value="561"/>
    <macStyle value="00000000 00000000"/>
    <lowestRecPPEM value="3"/>
    <fontDirectionHint value="2"/>
    <indexToLocFormat value="0"/>
    <glyphDataFormat value="0"/>
  </head>
        <CharString name=".notdef">
          330 40 0 rmoveto
          250 0 rlineto
          0 450 rlineto
          -250 0 rlineto
          210 -79 rmoveto
          0 -297 rlineto
          -65 148 rlineto
          65 149 rlineto
          -170 -290 rmoveto
          0 283 rlineto
          62 -142 rlineto
          -62 -141 rlineto
          84 192 rmoveto
          -60 137 rlineto
          119 0 rlineto
          -59 -137 rlineto
          0 -101 rmoveto
          57 -132 rlineto
          -115 0 rlineto
          58 132 rlineto
          endchar
        </CharString>
        <CharString name="ain-ar">
          680 90 -110 rmoveto
          445 0 rlineto
          41 70 rlineto
          -476 0 rlineto
          -11 0 -9 9 0 11 rrcurveto
          0 11 9 9 11 0 rrcurveto
          499 0 rlineto
          41 70 rlineto
          -139 0 rlineto
          -32 0 -53 47 0 31 rrcurveto
          0 29 65 38 20 12 rrcurveto
          -1 3 rlineto
          -53 -26 -93 -47 0 -48 rrcurveto
          0 -13 6 -13 16 -13 rrcurveto
          -286 0 rlineto
          -50 0 -40 -40 0 -50 rrcurveto
          0 -50 40 -40 50 0 rrcurveto
          endchar
        </CharString>
        <CharString name="ain-ar.1">
          529 131 -110 rmoveto
          260 0 rlineto
          41 70 rlineto
          -273 0 rlineto
          -32 0 -22 3 -23 23 rrcurveto
          -31 31 rlineto
          -17 17 9 47 14 -14 rrcurveto
          52 -52 rlineto
          10 -10 9 -5 12 0 rrcurveto
          308 0 rlineto
          41 70 rlineto
          -139 0 rlineto
          -32 0 -53 47 0 31 rrcurveto
          0 29 65 38 20 12 rrcurveto
          -1 3 rlineto
          -53 -26 -93 -47 0 -48 rrcurveto
          0 -13 6 -13 16 -13 rrcurveto
          -49 0 rlineto
          -9 0 -5 5 -4 4 rrcurveto
          -64 64 rlineto
          -50 50 -44 -149 0 -49 rrcurveto
          0 -85 57 -19 74 -1 rrcurveto
          endchar
        </CharString>
        <CharString name="ain-ar.2">
          529 131 -110 rmoveto
          45 0 rlineto
          31 0 101 47 54 23 rrcurveto
          -203 0 rlineto
          -32 0 -22 3 -23 23 rrcurveto
          -31 31 rlineto
          -17 17 9 47 14 -14 rrcurveto
          52 -52 rlineto
          10 -10 9 -5 12 0 rrcurveto
          308 0 rlineto
          41 70 rlineto
          -139 0 rlineto
          -32 0 -53 47 0 31 rrcurveto
          0 29 65 38 20 12 rrcurveto
          -1 3 rlineto
          -53 -26 -93 -47 0 -48 rrcurveto
          0 -13 6 -13 16 -13 rrcurveto
          -49 0 rlineto
          -9 0 -5 5 -4 4 rrcurveto
          -64 64 rlineto
          -50 50 -44 -149 0 -49 rrcurveto
          0 -85 57 -19 74 -1 rrcurveto
          endchar
        </CharString>
        <CharString name="ain-ar.3">
          330 199 -250 rmoveto
          43 0 46 8 76 35 rrcurveto
          -49 -8 -35 -4 -26 0 rrcurveto
          -83 0 -91 36 0 90 rrcurveto
          0 67 50 26 40 0 rrcurveto
          79 0 rlineto
          41 70 rlineto
          -127 0 rlineto
          -21 0 -12 17 0 19 rrcurveto
          0 21 16 23 37 0 rrcurveto
          13 0 16 -3 18 -7 rrcurveto
          -14 45 -35 25 -35 0 rrcurveto
          -88 0 -30 -102 38 -63 rrcurveto
          -43 -29 -23 -52 0 -54 rrcurveto
          0 -104 86 -56 113 0 rrcurveto
          endchar
        </CharString>
        <CharString name="ain-ar.fina">
          304 199 -250 rmoveto
          43 0 46 8 76 35 rrcurveto
          -49 -8 -35 -4 -26 0 rrcurveto
          -83 0 -91 36 0 90 rrcurveto
          0 67 50 26 40 0 rrcurveto
          134 0 rlineto
          0 70 rlineto
          -40 0 rlineto
          0 200 rlineto
          -80 -20 rlineto
          0 -100 rlineto
          -80 80 rlineto
          -42 -71 rlineto
          89 -89 rlineto
          -1 0 rlineto
          -96 0 -54 -78 0 -82 rrcurveto
          0 -104 86 -56 113 0 rrcurveto
          endchar
        </CharString>
        <CharString name="ain-ar.init">
          330 -20 0 rmoveto
          269 0 rlineto
          41 70 rlineto
          -139 0 rlineto
          -32 0 -53 47 0 31 rrcurveto
          0 29 65 38 20 12 rrcurveto
          -1 3 rlineto
          -53 -26 -93 -47 0 -48 rrcurveto
          0 -13 6 -13 16 -13 rrcurveto
          -46 0 rlineto
          endchar
        </CharString>
        <CharString name="ain-ar.init.1">
          280 -20 0 rmoveto
          219 0 rlineto
          41 70 rlineto
          -127 0 rlineto
          -21 0 -12 17 0 19 rrcurveto
          0 21 16 23 37 0 rrcurveto
          13 0 16 -3 18 -7 rrcurveto
          -14 45 -35 25 -35 0 rrcurveto
          -77 0 -33 -78 19 -62 rrcurveto
          -25 0 rlineto
          endchar
        </CharString>
        <CharString name="ain-ar.medi">
          242 -20 0 rmoveto
          262 0 rlineto
          0 70 rlineto
          -40 0 rlineto
          0 0 rlineto
          0 200 rlineto
          -80 -20 rlineto
          0 -100 rlineto
          -80 80 rlineto
          -42 -71 rlineto
          89 -89 rlineto
          -109 0 rlineto
          endchar
        </CharString>
        <CharString name="alef-ar">
          360 80 140 rmoveto
          0 420 rlineto
          -80 -20 rlineto
          0 -410 rlineto
          0 0 rlineto
          5 -88 74 -42 79 0 rrcurveto
          60 0 63 24 39 46 rrcurveto
          -28 -12 -44 -10 -43 0 rrcurveto
          -64 0 -61 22 0 70 rrcurveto
          endchar
        </CharString>
        <CharString name="alef-ar.1">
          200 80 80 rmoveto
          0 480 rlineto
          -80 -20 rlineto
          0 -460 rlineto
          0 -50 37 -30 40 0 rrcurveto
          30 0 31 16 22 34 rrcurveto
          -9 -4 -12 -3 -12 0 rrcurveto
          -24 0 -23 11 0 26 rrcurveto
          endchar
        </CharString>
        <CharString name="alef-ar.2">
          280 80 100 rmoveto
          0 460 rlineto
          -80 -20 rlineto
          0 -440 rlineto
          0 -66 52 -34 61 0 rrcurveto
          42 0 47 16 38 34 rrcurveto
          -24 -8 -27 -5 -24 0 rrcurveto
          -46 0 -39 17 0 46 rrcurveto
          endchar
        </CharString>
        <CharString name="alef-ar.3">
          160 0 20 rmoveto
          10 -10 20 -10 22 0 rrcurveto
          38 0 30 30 0 50 rrcurveto
          0 480 rlineto
          -80 -20 rlineto
          0 -470 rlineto
          0 -30 -13 -20 -27 0 rrcurveto
          endchar
        </CharString>
        <CharString name="alef-ar.fina">
          120 80 80 rmoveto
          0 480 rlineto
          -80 -20 rlineto
          0 -500 rlineto
          0 -25 15 -15 23 0 rrcurveto
          82 0 rlineto
          0 70 rlineto
          -30 0 rlineto
          -7 0 -3 3 0 7 rrcurveto
          endchar
        </CharString>
        <CharString name="alefHamzaabove-ar">
          360 80 140 rmoveto
          0 420 rlineto
          -80 -20 rlineto
          0 -410 rlineto
          0 0 rlineto
          5 -88 74 -42 79 0 rrcurveto
          60 0 63 24 39 46 rrcurveto
          -28 -12 -44 -10 -43 0 rrcurveto
          -64 0 -61 22 0 70 rrcurveto
          106 363 rmoveto
          -8 0 -5 7 0 8 rrcurveto
          0 9 7 9 15 0 rrcurveto
          5 0 7 -1 7 -3 rrcurveto
          -6 18 -14 11 -14 0 rrcurveto
          -32 0 -14 -33 8 -25 rrcurveto
          -11 0 rlineto
          -17 -29 rlineto
          108 0 rlineto
          17 29 rlineto
          -53 0 rlineto
          endchar
        </CharString>
        <CharString name="alefHamzabelow-ar">
          360 80 140 rmoveto
          0 420 rlineto
          -80 -20 rlineto
          0 -410 rlineto
          0 0 rlineto
          5 -88 74 -42 79 0 rrcurveto
          60 0 63 24 39 46 rrcurveto
          -28 -12 -44 -10 -43 0 rrcurveto
          -64 0 -61 22 0 70 rrcurveto
          -3 -218 rmoveto
          -8 0 -5 7 0 8 rrcurveto
          0 9 7 9 15 0 rrcurveto
          5 0 7 -1 7 -3 rrcurveto
          -6 18 -14 11 -14 0 rrcurveto
          -32 0 -14 -33 8 -25 rrcurveto
          -11 0 rlineto
          -17 -29 rlineto
          108 0 rlineto
          17 29 rlineto
          -53 0 rlineto
          endchar
        </CharString>
        <CharString name="alefMadda-ar">
          360 80 140 rmoveto
          0 420 rlineto
          -80 -20 rlineto
          0 -410 rlineto
          0 0 rlineto
          5 -88 74 -42 79 0 rrcurveto
          60 0 63 24 39 46 rrcurveto
          -28 -12 -44 -10 -43 0 rrcurveto
          -64 0 -61 22 0 70 rrcurveto
          endchar
        </CharString>
        <CharString name="alefMaksura-ar">
          247 -33 -220 rmoveto
          202 0 rlineto
          23 0 15 15 0 25 rrcurveto
          0 96 rlineto
          0 25 -13 16 -35 0 rrcurveto
          -32 0 -22 6 -23 23 rrcurveto
          -31 31 rlineto
          -17 17 9 47 14 -14 rrcurveto
          52 -52 rlineto
          10 -10 9 -5 12 0 rrcurveto
          16 0 36 10 10 80 rrcurveto
          -3 -15 -14 -5 -9 0 rrcurveto
          -9 0 -5 5 -4 4 rrcurveto
          -64 64 rlineto
          -50 50 -44 -149 0 -49 rrcurveto
          0 -83 55 -20 72 -2 rrcurveto
          0 -40 rlineto
          -60 0 rlineto
          -20 0 -17 5 -11 15 rrcurveto
          endchar
        </CharString>
        <CharString name="alefMaksura-ar.1">
          247 -33 -250 rmoveto
          202 0 rlineto
          23 0 15 15 0 25 rrcurveto
          0 126 rlineto
          0 25 -13 16 -35 0 rrcurveto
          -32 0 -22 6 -23 23 rrcurveto
          -31 31 rlineto
          -17 17 9 47 14 -14 rrcurveto
          52 -52 rlineto
          10 -10 9 -5 12 0 rrcurveto
          16 0 36 10 10 80 rrcurveto
          -3 -15 -14 -5 -9 0 rrcurveto
          -9 0 -5 5 -4 4 rrcurveto
          -64 64 rlineto
          -50 50 -44 -149 0 -49 rrcurveto
          0 -83 55 -20 72 -2 rrcurveto
          0 -70 rlineto
          -60 0 rlineto
          -20 0 -17 5 -11 15 rrcurveto
          endchar
        </CharString>
        <CharString name="alefMaksura-ar.2">
          242 131 -110 rmoveto
          260 0 rlineto
          41 70 rlineto
          -283 0 rlineto
          -32 0 -12 3 -23 23 rrcurveto
          -31 31 rlineto
          -17 17 9 47 14 -14 rrcurveto
          52 -52 rlineto
          10 -10 9 -5 12 0 rrcurveto
          16 0 36 10 10 80 rrcurveto
          -3 -15 -14 -5 -9 0 rrcurveto
          -9 0 -5 5 -4 4 rrcurveto
          -64 64 rlineto
          -50 50 -44 -149 0 -49 rrcurveto
          0 -85 57 -19 74 -1 rrcurveto
          endchar
        </CharString>
        <CharString name="alefMaksura-ar.3">
          242 131 -110 rmoveto
          405 0 rlineto
          41 70 rlineto
          -428 0 rlineto
          -32 0 -12 3 -23 23 rrcurveto
          -31 31 rlineto
          -17 17 9 47 14 -14 rrcurveto
          52 -52 rlineto
          10 -10 9 -5 12 0 rrcurveto
          16 0 36 10 10 80 rrcurveto
          -3 -15 -14 -5 -9 0 rrcurveto
          -9 0 -5 5 -4 4 rrcurveto
          -64 64 rlineto
          -50 50 -44 -149 0 -49 rrcurveto
          0 -85 57 -19 74 -1 rrcurveto
          endchar
        </CharString>
        <CharString name="alefMaksura-ar.4">
          242 131 -110 rmoveto
          560 0 rlineto
          41 70 rlineto
          -583 0 rlineto
          -32 0 -12 3 -23 23 rrcurveto
          -31 31 rlineto
          -17 17 9 47 14 -14 rrcurveto
          52 -52 rlineto
          10 -10 9 -5 12 0 rrcurveto
          16 0 36 10 10 80 rrcurveto
          -3 -15 -14 -5 -9 0 rrcurveto
          -9 0 -5 5 -4 4 rrcurveto
          -64 64 rlineto
          -50 50 -44 -149 0 -49 rrcurveto
          0 -85 57 -19 74 -1 rrcurveto
          endchar
        </CharString>
        <CharString name="alefMaksura-ar.5">
          242 131 -110 rmoveto
          45 0 rlineto
          31 0 101 47 54 23 rrcurveto
          -213 0 rlineto
          -32 0 -12 3 -23 23 rrcurveto
          -31 31 rlineto
          -17 17 9 47 14 -14 rrcurveto
          52 -52 rlineto
          10 -10 9 -5 12 0 rrcurveto
          16 0 36 10 10 80 rrcurveto
          -3 -15 -14 -5 -9 0 rrcurveto
          -9 0 -5 5 -4 4 rrcurveto
          -64 64 rlineto
          -50 50 -44 -149 0 -49 rrcurveto
          0 -85 57 -19 74 -1 rrcurveto
          endchar
        </CharString>
        <CharString name="alefMaksura-ar.6">
          242 131 -110 rmoveto
          46 0 rlineto
          125 0 258 36 163 18 rrcurveto
          9 16 rlineto
          -583 0 rlineto
          -32 0 -12 3 -23 23 rrcurveto
          -31 31 rlineto
          -17 17 9 47 14 -14 rrcurveto
          52 -52 rlineto
          10 -10 9 -5 12 0 rrcurveto
          16 0 36 10 10 80 rrcurveto
          -3 -15 -14 -5 -9 0 rrcurveto
          -9 0 -5 5 -4 4 rrcurveto
          -64 64 rlineto
          -50 50 -44 -149 0 -49 rrcurveto
          0 -85 57 -19 74 -1 rrcurveto
          endchar
        </CharString>
        <CharString name="alefMaksura-ar.fina">
          207 -33 -220 rmoveto
          202 0 rlineto
          23 0 15 15 0 25 rrcurveto
          0 96 rlineto
          0 25 -13 16 -35 0 rrcurveto
          -32 0 -22 6 -23 23 rrcurveto
          -31 31 rlineto
          -17 17 9 47 14 -14 rrcurveto
          52 -52 rlineto
          10 -10 9 -5 12 0 rrcurveto
          67 0 rlineto
          0 70 rlineto
          -31 0 rlineto
          -9 0 -5 5 -4 4 rrcurveto
          -64 64 rlineto
          -50 50 -44 -149 0 -49 rrcurveto
          0 -83 55 -20 72 -2 rrcurveto
          0 -40 rlineto
          -60 0 rlineto
          -20 0 -17 5 -11 15 rrcurveto
          endchar
        </CharString>
        <CharString name="alefMaksura-ar.fina.0">
          207 -33 -220 rmoveto
          202 0 rlineto
          23 0 15 15 0 25 rrcurveto
          0 96 rlineto
          0 25 -13 16 -35 0 rrcurveto
          -32 0 -22 6 -23 23 rrcurveto
          -31 31 rlineto
          -17 17 9 47 14 -14 rrcurveto
          52 -52 rlineto
          10 -10 9 -5 12 0 rrcurveto
          67 0 rlineto
          0 70 rlineto
          -31 0 rlineto
          -9 0 -5 5 -4 4 rrcurveto
          -64 64 rlineto
          -50 50 -44 -149 0 -49 rrcurveto
          0 -83 55 -20 72 -2 rrcurveto
          0 -40 rlineto
          -60 0 rlineto
          -20 0 -17 5 -11 15 rrcurveto
          endchar
        </CharString>
        <CharString name="alefMaksura-ar.fina.1">
          207 -33 -250 rmoveto
          202 0 rlineto
          23 0 15 15 0 25 rrcurveto
          0 126 rlineto
          0 25 -13 16 -35 0 rrcurveto
          -32 0 -22 6 -23 23 rrcurveto
          -31 31 rlineto
          -17 17 9 47 14 -14 rrcurveto
          52 -52 rlineto
          10 -10 9 -5 12 0 rrcurveto
          67 0 rlineto
          0 70 rlineto
          -31 0 rlineto
          -9 0 -5 5 -4 4 rrcurveto
          -64 64 rlineto
          -50 50 -44 -149 0 -49 rrcurveto
          0 -83 55 -20 72 -2 rrcurveto
          0 -70 rlineto
          -60 0 rlineto
          -20 0 -17 5 -11 15 rrcurveto
          endchar
        </CharString>
        <CharString name="alefMaksura-ar.fina.2">
          207 131 -110 rmoveto
          260 0 rlineto
          41 70 rlineto
          -273 0 rlineto
          -32 0 -22 3 -23 23 rrcurveto
          -31 31 rlineto
          -17 17 9 47 14 -14 rrcurveto
          52 -52 rlineto
          10 -10 9 -5 12 0 rrcurveto
          67 0 rlineto
          0 70 rlineto
          -31 0 rlineto
          -9 0 -5 5 -4 4 rrcurveto
          -64 64 rlineto
          -50 50 -44 -149 0 -49 rrcurveto
          0 -85 57 -19 74 -1 rrcurveto
          endchar
        </CharString>
        <CharString name="alefMaksura-ar.fina.3">
          207 131 -110 rmoveto
          405 0 rlineto
          41 70 rlineto
          -418 0 rlineto
          -32 0 -22 3 -23 23 rrcurveto
          -31 31 rlineto
          -17 17 9 47 14 -14 rrcurveto
          52 -52 rlineto
          10 -10 9 -5 12 0 rrcurveto
          67 0 rlineto
          0 70 rlineto
          -31 0 rlineto
          -9 0 -5 5 -4 4 rrcurveto
          -64 64 rlineto
          -50 50 -44 -149 0 -49 rrcurveto
          0 -85 57 -19 74 -1 rrcurveto
          endchar
        </CharString>
        <CharString name="alefMaksura-ar.fina.4">
          207 131 -110 rmoveto
          560 0 rlineto
          41 70 rlineto
          -573 0 rlineto
          -32 0 -22 3 -23 23 rrcurveto
          -31 31 rlineto
          -17 17 9 47 14 -14 rrcurveto
          52 -52 rlineto
          10 -10 9 -5 12 0 rrcurveto
          67 0 rlineto
          0 70 rlineto
          -31 0 rlineto
          -9 0 -5 5 -4 4 rrcurveto
          -64 64 rlineto
          -50 50 -44 -149 0 -49 rrcurveto
          0 -85 57 -19 74 -1 rrcurveto
          endchar
        </CharString>
        <CharString name="alefMaksura-ar.fina.5">
          207 131 -110 rmoveto
          45 0 rlineto
          31 0 101 47 54 23 rrcurveto
          -203 0 rlineto
          -32 0 -22 3 -23 23 rrcurveto
          -31 31 rlineto
          -17 17 9 47 14 -14 rrcurveto
          52 -52 rlineto
          10 -10 9 -5 12 0 rrcurveto
          67 0 rlineto
          0 70 rlineto
          -31 0 rlineto
          -9 0 -5 5 -4 4 rrcurveto
          -64 64 rlineto
          -50 50 -44 -149 0 -49 rrcurveto
          0 -85 57 -19 74 -1 rrcurveto
          endchar
        </CharString>
        <CharString name="alefMaksura-ar.fina.6">
          207 131 -110 rmoveto
          46 0 rlineto
          125 0 258 36 163 18 rrcurveto
          9 16 rlineto
          -573 0 rlineto
          -32 0 -22 3 -23 23 rrcurveto
          -31 31 rlineto
          -17 17 9 47 14 -14 rrcurveto
          52 -52 rlineto
          10 -10 9 -5 12 0 rrcurveto
          67 0 rlineto
          0 70 rlineto
          -31 0 rlineto
          -9 0 -5 5 -4 4 rrcurveto
          -64 64 rlineto
          -50 50 -44 -149 0 -49 rrcurveto
          0 -85 57 -19 74 -1 rrcurveto
          endchar
        </CharString>
        <CharString name="alefMaksura-ar.fina.tooth">
          280 -40 -220 rmoveto
          299 0 rlineto
          6 0 15 0 0 21 rrcurveto
          0 139 -70 20 -44 0 rrcurveto
          -76 0 rlineto
          -7 0 -3 3 0 7 rrcurveto
          0 80 rlineto
          -80 0 rlineto
          0 -120 rlineto
          0 -25 15 -15 23 0 rrcurveto
          118 0 rlineto
          22 0 18 -18 0 -22 rrcurveto
          -196 0 rlineto
          endchar
        </CharString>
        <CharString name="alefWasla-ar">
          360 80 140 rmoveto
          0 420 rlineto
          -80 -20 rlineto
          0 -410 rlineto
          0 0 rlineto
          5 -88 74 -42 79 0 rrcurveto
          60 0 63 24 39 46 rrcurveto
          -28 -12 -44 -10 -43 0 rrcurveto
          -64 0 -61 22 0 70 rrcurveto
          endchar
        </CharString>
        <CharString name="beh-ar">
          600 0 0 rmoveto
          539 0 rlineto
          6 0 15 0 0 11 rrcurveto
          0 219 rlineto
          -80 -20 rlineto
          0 -140 rlineto
          -380 0 rlineto
          -22 0 -16 7 -10 13 rrcurveto
          198 -214 rmoveto
          47 79 rlineto
          -17 10 rlineto
          -47 -79 rlineto
          endchar
        </CharString>
        <CharString name="behDotless-ar">
          600 0 0 rmoveto
          539 0 rlineto
          6 0 15 0 0 11 rrcurveto
          0 219 rlineto
          -80 -20 rlineto
          0 -140 rlineto
          -380 0 rlineto
          -22 0 -16 7 -10 13 rrcurveto
          endchar
        </CharString>
        <CharString name="behDotless-ar.fina">
          600 0 0 rmoveto
          600 0 rlineto
          0 70 rlineto
          -22 0 -18 18 0 22 rrcurveto
          0 120 rlineto
          -80 -20 rlineto
          0 -140 rlineto
          -380 0 rlineto
          -22 0 -16 7 -10 13 rrcurveto
          endchar
        </CharString>
        <CharString name="behDotless-ar.fina.1">
          600 0 0 rmoveto
          600 0 rlineto
          0 70 rlineto
          -47 0 rlineto
          -51 140 rlineto
          -68 -46 rlineto
          34 -94 rlineto
          -368 0 rlineto
          -22 0 -16 7 -10 13 rrcurveto
          endchar
        </CharString>
        <CharString name="behDotless-ar.init">
          120 -20 0 rmoveto
          79 0 rlineto
          6 0 15 0 0 11 rrcurveto
          0 219 rlineto
          -80 -20 rlineto
          0 -140 rlineto
          -20 0 rlineto
          endchar
        </CharString>
        <CharString name="behDotless-ar.init.hah">
          80 -20 0 rmoveto
          57 0 43 30 0 40 rrcurveto
          0 90 rlineto
          -80 -20 rlineto
          0 -70 rlineto
          0 -19 0 -26 -20 0 rrcurveto
          endchar
        </CharString>
        <CharString name="behDotless-ar.medi">
          120 -20 0 rmoveto
          140 0 rlineto
          0 70 rlineto
          -22 0 -18 18 0 22 rrcurveto
          0 120 rlineto
          -80 -20 rlineto
          0 -140 rlineto
          -20 0 rlineto
          endchar
        </CharString>
        <CharString name="behDotless-ar.medi.1">
          150 -20 0 rmoveto
          170 0 rlineto
          0 70 rlineto
          -40 0 rlineto
          -70 70 rlineto
          -40 -70 rlineto
          -20 0 rlineto
          endchar
        </CharString>
        <CharString name="behDotless-ar.medi.high">
          120 -20 0 rmoveto
          140 0 rlineto
          0 70 rlineto
          -22 0 -18 18 0 22 rrcurveto
          0 160 rlineto
          -80 -20 rlineto
          0 -180 rlineto
          -20 0 rlineto
          endchar
        </CharString>
        <CharString name="behDotless-ar.medi.high.1">
          120 -20 0 rmoveto
          140 0 rlineto
          0 70 rlineto
          -22 0 -18 18 0 22 rrcurveto
          0 150 rlineto
          -80 -20 rlineto
          0 -170 rlineto
          -20 0 rlineto
          endchar
        </CharString>
        <CharString name="behDotless-ar.medi.yeh">
          120 80 80 rmoveto
          0 150 rlineto
          -80 -20 rlineto
          0 -210 rlineto
          120 0 rlineto
          0 70 rlineto
          -30 0 rlineto
          -7 0 -3 3 0 7 rrcurveto
          endchar
        </CharString>
        <CharString name="dad-ar">
          740 -130 -250 rmoveto
          242 0 rlineto
          23 0 15 15 0 25 rrcurveto
          0 210 rlineto
          529 0 rlineto
          6 0 15 0 0 21 rrcurveto
          0 139 -70 20 -44 0 rrcurveto
          -436 0 rlineto
          -80 80 rlineto
          -40 -70 rlineto
          40 -40 rlineto
          0 -330 rlineto
          -100 0 rlineto
          -20 0 -17 5 -11 15 rrcurveto
          228 230 rmoveto
          0 40 rlineto
          426 0 rlineto
          22 0 18 -18 0 -22 rrcurveto
          -466 0 rlineto
          230 185 rmoveto
          47 79 rlineto
          -17 10 rlineto
          -47 -79 rlineto
          endchar
        </CharString>
        <CharString name="dal-ar">
          600 0 0 rmoveto
          539 0 rlineto
          6 0 15 0 0 21 rrcurveto
          0 139 -70 20 -44 0 rrcurveto
          -326 0 rlineto
          27 70 rlineto
          -3 0 rlineto
          -80 -140 rlineto
          372 0 rlineto
          22 0 18 -18 0 -22 rrcurveto
          -436 0 rlineto
          endchar
        </CharString>
        <CharString name="dal-ar.fina">
          600 0 0 rmoveto
          600 0 rlineto
          0 70 rlineto
          -43 0 rlineto
          -15 95 -58 15 -38 0 rrcurveto
          -326 0 rlineto
          27 70 rlineto
          -3 0 rlineto
          -80 -140 rlineto
          372 0 rlineto
          22 0 18 -18 0 -22 rrcurveto
          -436 0 rlineto
          endchar
        </CharString>
        <CharString name="dotabove-ar">
          0 17 0 rmoveto
          47 79 rlineto
          -17 10 rlineto
          -47 -79 rlineto
          endchar
        </CharString>
        <CharString name="dotabove-ar.alt1">
          0 29 0 rmoveto
          16 0 13 13 0 16 rrcurveto
          0 16 -13 13 -16 0 rrcurveto
          -16 0 -13 -13 0 -16 rrcurveto
          0 -16 13 -13 16 0 rrcurveto
          endchar
        </CharString>
        <CharString name="dotbelow-ar">
          0 17 0 rmoveto
          47 79 rlineto
          -17 10 rlineto
          -47 -79 rlineto
          endchar
        </CharString>
        <CharString name="dotbelow-ar.alt1">
          0 29 0 rmoveto
          16 0 13 13 0 16 rrcurveto
          0 16 -13 13 -16 0 rrcurveto
          -16 0 -13 -13 0 -16 rrcurveto
          0 -16 13 -13 16 0 rrcurveto
          endchar
        </CharString>
        <CharString name="eight-ar">
          250 0 350 rmoveto
          0 -350 rlineto
          70 0 rlineto
          0 280 rlineto
          70 0 rlineto
          0 -280 rlineto
          70 0 rlineto
          0 350 rlineto
          endchar
        </CharString>
        <CharString name="eight-ar.1">
          346 153 350 rmoveto
          -33 0 rlineto
          -120 -327 rlineto
          66 -23 rlineto
          87 238 rlineto
          87 -238 rlineto
          66 23 rlineto
          -120 327 rlineto
          -33 0 rlineto
          endchar
        </CharString>
        <CharString name="empty">
          0 endchar
        </CharString>
        <CharString name="feh-ar">
          613 0 0 rmoveto
          536 0 rlineto
          24 0 13 37 0 65 rrcurveto
          0 77 -19 111 -93 0 rrcurveto
          -56 0 -45 -40 0 -50 rrcurveto
          0 -50 45 -40 55 0 rrcurveto
          10 0 10 1 10 3 rrcurveto
          2 -7 0 -8 0 -7 rrcurveto
          0 -7 0 -8 -2 -7 rrcurveto
          -390 0 rlineto
          -22 0 -16 7 -10 13 rrcurveto
          408 245 rmoveto
          47 79 rlineto
          -17 10 rlineto
          -47 -79 rlineto
          17 -165 rmoveto
          -11 0 -9 9 0 11 rrcurveto
          0 11 9 9 11 0 rrcurveto
          11 0 9 -9 0 -11 rrcurveto
          0 -11 -9 -9 -11 0 rrcurveto
          endchar
        </CharString>
        <CharString name="fehDotbelow-ar">
          613 0 0 rmoveto
          536 0 rlineto
          24 0 13 37 0 65 rrcurveto
          0 77 -19 111 -93 0 rrcurveto
          -56 0 -45 -40 0 -50 rrcurveto
          0 -50 45 -40 55 0 rrcurveto
          10 0 10 1 10 3 rrcurveto
          2 -7 0 -8 0 -7 rrcurveto
          0 -7 0 -8 -2 -7 rrcurveto
          -390 0 rlineto
          -22 0 -16 7 -10 13 rrcurveto
          405 -214 rmoveto
          47 79 rlineto
          -17 10 rlineto
          -47 -79 rlineto
          20 294 rmoveto
          -11 0 -9 9 0 11 rrcurveto
          0 11 9 9 11 0 rrcurveto
          11 0 9 -9 0 -11 rrcurveto
          0 -11 -9 -9 -11 0 rrcurveto
          endchar
        </CharString>
        <CharString name="fehDotless-ar">
          613 0 0 rmoveto
          536 0 rlineto
          24 0 13 37 0 65 rrcurveto
          0 77 -19 111 -93 0 rrcurveto
          -56 0 -45 -40 0 -50 rrcurveto
          0 -50 45 -40 55 0 rrcurveto
          10 0 10 1 10 3 rrcurveto
          2 -7 0 -8 0 -7 rrcurveto
          0 -7 0 -8 -2 -7 rrcurveto
          -390 0 rlineto
          -22 0 -16 7 -10 13 rrcurveto
          408 90 rmoveto
          -11 0 -9 9 0 11 rrcurveto
          0 11 9 9 11 0 rrcurveto
          11 0 9 -9 0 -11 rrcurveto
          0 -11 -9 -9 -11 0 rrcurveto
          endchar
        </CharString>
        <CharString name="fehDotless-ar.1">
          600 460 110 rmoveto
          7 0 7 1 6 1 rrcurveto
          0 -42 rlineto
          -380 0 rlineto
          -22 0 -16 7 -10 13 rrcurveto
          -52 -90 rlineto
          539 0 rlineto
          6 0 15 0 0 11 rrcurveto
          0 189 rlineto
          0 0 rlineto
          0 50 -45 40 -55 0 rrcurveto
          -55 0 -45 -40 0 -50 rrcurveto
          0 -50 45 -40 55 0 rrcurveto
          0 70 rmoveto
          -11 0 -9 9 0 11 rrcurveto
          0 11 9 9 11 0 rrcurveto
          11 0 9 -9 0 -11 rrcurveto
          0 0 rlineto
          0 -11 -9 -9 -11 0 rrcurveto
          endchar
        </CharString>
        <CharString name="fehDotless-ar.2">
          653 0 0 rmoveto
          576 0 rlineto
          24 0 13 37 0 65 rrcurveto
          0 77 -19 111 -93 0 rrcurveto
          -56 0 -45 -40 0 -50 rrcurveto
          0 -50 45 -40 55 0 rrcurveto
          10 0 10 1 10 3 rrcurveto
          2 -7 0 -8 0 -7 rrcurveto
          0 -7 0 -8 -2 -7 rrcurveto
          -430 0 rlineto
          -22 0 -16 7 -10 13 rrcurveto
          448 90 rmoveto
          -11 0 -9 9 0 11 rrcurveto
          0 11 9 9 11 0 rrcurveto
          11 0 9 -9 0 -11 rrcurveto
          0 -11 -9 -9 -11 0 rrcurveto
          endchar
        </CharString>
        <CharString name="fehDotless-ar.3">
          640 500 110 rmoveto
          7 0 7 1 6 1 rrcurveto
          0 -42 rlineto
          -420 0 rlineto
          -22 0 -16 7 -10 13 rrcurveto
          -52 -90 rlineto
          579 0 rlineto
          6 0 15 0 0 11 rrcurveto
          0 189 rlineto
          0 0 rlineto
          0 50 -45 40 -55 0 rrcurveto
          -55 0 -45 -40 0 -50 rrcurveto
          0 -50 45 -40 55 0 rrcurveto
          0 70 rmoveto
          -11 0 -9 9 0 11 rrcurveto
          0 11 9 9 11 0 rrcurveto
          11 0 9 -9 0 -11 rrcurveto
          0 0 rlineto
          0 -11 -9 -9 -11 0 rrcurveto
          endchar
        </CharString>
        <CharString name="fehDotless-ar.fina">
          613 0 0 rmoveto
          613 0 rlineto
          0 70 rlineto
          -41 0 rlineto
          1 10 0 10 0 12 rrcurveto
          0 77 -19 111 -93 0 rrcurveto
          -56 0 -45 -40 0 -50 rrcurveto
          0 -50 45 -40 55 0 rrcurveto
          10 0 10 1 10 3 rrcurveto
          2 -7 0 -8 0 -7 rrcurveto
          0 -7 0 -8 -2 -7 rrcurveto
          -390 0 rlineto
          -22 0 -16 7 -10 13 rrcurveto
          408 90 rmoveto
          -11 0 -9 9 0 11 rrcurveto
          0 11 9 9 11 0 rrcurveto
          11 0 9 -9 0 -11 rrcurveto
          0 -11 -9 -9 -11 0 rrcurveto
          endchar
        </CharString>
        <CharString name="fehDotless-ar.fina.1">
          600 460 110 rmoveto
          7 0 7 1 6 1 rrcurveto
          0 -42 rlineto
          -380 0 rlineto
          -22 0 -16 7 -10 13 rrcurveto
          -52 -90 rlineto
          600 0 rlineto
          0 70 rlineto
          -40 0 rlineto
          0 130 rlineto
          0 0 rlineto
          0 50 -45 40 -55 0 rrcurveto
          -55 0 -45 -40 0 -50 rrcurveto
          0 -50 45 -40 55 0 rrcurveto
          0 70 rmoveto
          -11 0 -9 9 0 11 rrcurveto
          0 11 9 9 11 0 rrcurveto
          11 0 9 -9 0 -11 rrcurveto
          0 0 rlineto
          0 -11 -9 -9 -11 0 rrcurveto
          endchar
        </CharString>
        <CharString name="fehDotless-ar.fina.2">
          653 0 0 rmoveto
          653 0 rlineto
          0 70 rlineto
          -41 0 rlineto
          1 10 0 10 0 12 rrcurveto
          0 77 -19 111 -93 0 rrcurveto
          -56 0 -45 -40 0 -50 rrcurveto
          0 -50 45 -40 55 0 rrcurveto
          10 0 10 1 10 3 rrcurveto
          2 -7 0 -8 0 -7 rrcurveto
          0 -7 0 -8 -2 -7 rrcurveto
          -430 0 rlineto
          -22 0 -16 7 -10 13 rrcurveto
          448 90 rmoveto
          -11 0 -9 9 0 11 rrcurveto
          0 11 9 9 11 0 rrcurveto
          11 0 9 -9 0 -11 rrcurveto
          0 -11 -9 -9 -11 0 rrcurveto
          endchar
        </CharString>
        <CharString name="fehDotless-ar.fina.3">
          640 500 110 rmoveto
          7 0 7 1 6 1 rrcurveto
          0 -42 rlineto
          -420 0 rlineto
          -22 0 -16 7 -10 13 rrcurveto
          -52 -90 rlineto
          640 0 rlineto
          0 70 rlineto
          -40 0 rlineto
          0 130 rlineto
          0 0 rlineto
          0 50 -45 40 -55 0 rrcurveto
          -55 0 -45 -40 0 -50 rrcurveto
          0 -50 45 -40 55 0 rrcurveto
          0 70 rmoveto
          -11 0 -9 9 0 11 rrcurveto
          0 11 9 9 11 0 rrcurveto
          11 0 9 -9 0 -11 rrcurveto
          0 0 rlineto
          0 -11 -9 -9 -11 0 rrcurveto
          endchar
        </CharString>
        <CharString name="fehDotless-ar.init">
          253 -20 0 rmoveto
          196 0 rlineto
          24 0 13 37 0 65 rrcurveto
          0 77 -19 111 -93 0 rrcurveto
          -56 0 -45 -40 0 -50 rrcurveto
          0 -50 45 -40 55 0 rrcurveto
          10 0 10 1 10 3 rrcurveto
          2 -7 0 -8 0 -7 rrcurveto
          0 -7 0 -8 -2 -7 rrcurveto
          -150 0 rlineto
          120 110 rmoveto
          -11 0 -9 9 0 11 rrcurveto
          0 11 9 9 11 0 rrcurveto
          11 0 9 -9 0 -11 rrcurveto
          0 -11 -9 -9 -11 0 rrcurveto
          endchar
        </CharString>
        <CharString name="fehDotless-ar.init.1">
          240 -20 0 rmoveto
          199 0 rlineto
          6 0 15 0 0 11 rrcurveto
          0 189 rlineto
          0 0 rlineto
          0 50 -45 40 -55 0 rrcurveto
          -55 0 -45 -40 0 -50 rrcurveto
          0 -50 45 -40 55 0 rrcurveto
          7 0 7 1 6 1 rrcurveto
          0 -42 rlineto
          -140 0 rlineto
          120 110 rmoveto
          -11 0 -9 9 0 11 rrcurveto
          0 11 9 9 11 0 rrcurveto
          11 0 9 -9 0 -11 rrcurveto
          0 0 rlineto
          0 -11 -9 -9 -11 0 rrcurveto
          endchar
        </CharString>
        <CharString name="fehDotless-ar.medi">
          248 -20 0 rmoveto
          268 0 rlineto
          0 70 rlineto
          -42 0 rlineto
          0 137 rlineto
          0 57 -46 46 -57 0 rrcurveto
          -57 0 -47 -46 0 -57 rrcurveto
          0 -28 15 -26 19 -19 rrcurveto
          62 -64 rlineto
          -115 0 rlineto
          146 83 rmoveto
          -40 41 rlineto
          -5 5 -4 7 0 8 rrcurveto
          0 14 8 12 15 0 rrcurveto
          14 0 12 -12 0 -14 rrcurveto
          0 -61 rlineto
          endchar
        </CharString>
        <CharString name="fehDotless-ar.medi.1">
          240 -20 0 rmoveto
          260 0 rlineto
          0 70 rlineto
          -40 0 rlineto
          0 130 rlineto
          0 0 rlineto
          0 50 -45 40 -55 0 rrcurveto
          -55 0 -45 -40 0 -50 rrcurveto
          0 -50 45 -40 55 0 rrcurveto
          7 0 7 1 6 1 rrcurveto
          0 -42 rlineto
          -140 0 rlineto
          120 110 rmoveto
          -11 0 -9 9 0 11 rrcurveto
          0 11 9 9 11 0 rrcurveto
          11 0 9 -9 0 -11 rrcurveto
          0 0 rlineto
          0 -11 -9 -9 -11 0 rrcurveto
          endchar
        </CharString>
        <CharString name="five-ar">
          250 0 350 rmoveto
          0 -350 rlineto
          210 0 rlineto
          0 350 rlineto
          -140 -280 rmoveto
          0 210 rlineto
          70 0 rlineto
          0 -210 rlineto
          -70 0 rlineto
          endchar
        </CharString>
        <CharString name="four-ar">
          350 120 350 rmoveto
          0 -140 rlineto
          -50 0 rlineto
          0 140 rlineto
          -70 0 rlineto
          0 -350 rlineto
          310 0 rlineto
          0 70 rlineto
          -240 0 rlineto
          0 70 rlineto
          240 0 rlineto
          0 70 rlineto
          -120 0 rlineto
          0 70 rlineto
          120 0 rlineto
          0 70 rlineto
          endchar
        </CharString>
        <CharString name="four-ar.1">
          350 120 350 rmoveto
          0 -140 rlineto
          -50 0 rlineto
          0 140 rlineto
          -70 0 rlineto
          0 -350 rlineto
          70 0 rlineto
          0 140 rlineto
          240 0 rlineto
          0 70 rlineto
          -120 0 rlineto
          0 70 rlineto
          120 0 rlineto
          0 70 rlineto
          endchar
        </CharString>
        <CharString name="four-ar.2">
          250 0 350 rmoveto
          0 -350 rlineto
          210 0 rlineto
          0 70 rlineto
          -140 0 rlineto
          0 70 rlineto
          140 0 rlineto
          0 70 rlineto
          -140 0 rlineto
          0 70 rlineto
          140 0 rlineto
          0 70 rlineto
          endchar
        </CharString>
        <CharString name="ghain-ar">
          680 90 -110 rmoveto
          445 0 rlineto
          41 70 rlineto
          -476 0 rlineto
          -11 0 -9 9 0 11 rrcurveto
          0 11 9 9 11 0 rrcurveto
          499 0 rlineto
          41 70 rlineto
          -139 0 rlineto
          -32 0 -53 47 0 31 rrcurveto
          0 29 65 38 20 12 rrcurveto
          -1 3 rlineto
          -53 -26 -93 -47 0 -48 rrcurveto
          0 -13 6 -13 16 -13 rrcurveto
          -286 0 rlineto
          -50 0 -40 -40 0 -50 rrcurveto
          0 -50 40 -40 50 0 rrcurveto
          309 340 rmoveto
          47 79 rlineto
          -17 10 rlineto
          -47 -79 rlineto
          endchar
        </CharString>
        <CharString name="hah-ar">
          640 90 -110 rmoveto
          405 0 rlineto
          41 70 rlineto
          -436 0 rlineto
          -11 0 -9 9 0 11 rrcurveto
          0 11 9 9 11 0 rrcurveto
          459 0 rlineto
          41 70 rlineto
          -137 0 rlineto
          -58 0 -61 65 -61 75 rrcurveto
          -43 -70 rlineto
          19 -28 28 -29 15 -13 rrcurveto
          -212 0 rlineto
          -50 0 -40 -40 0 -50 rrcurveto
          0 -50 40 -40 50 0 rrcurveto
          endchar
        </CharString>
        <CharString name="hah-ar.1">
          660 90 -110 rmoveto
          425 0 rlineto
          41 70 rlineto
          -456 0 rlineto
          -11 0 -9 9 0 11 rrcurveto
          0 11 9 9 11 0 rrcurveto
          479 0 rlineto
          41 70 rlineto
          -157 0 rlineto
          -58 0 -61 65 -61 75 rrcurveto
          -43 -70 rlineto
          19 -28 28 -29 15 -13 rrcurveto
          -212 0 rlineto
          -50 0 -40 -40 0 -50 rrcurveto
          0 -50 40 -40 50 0 rrcurveto
          endchar
        </CharString>
        <CharString name="hah-ar.2">
          680 90 -110 rmoveto
          445 0 rlineto
          41 70 rlineto
          -476 0 rlineto
          -11 0 -9 9 0 11 rrcurveto
          0 11 9 9 11 0 rrcurveto
          499 0 rlineto
          41 70 rlineto
          -177 0 rlineto
          -58 0 -61 65 -61 75 rrcurveto
          -43 -70 rlineto
          19 -28 28 -29 15 -13 rrcurveto
          -212 0 rlineto
          -50 0 -40 -40 0 -50 rrcurveto
          0 -50 40 -40 50 0 rrcurveto
          endchar
        </CharString>
        <CharString name="hah-ar.3">
          490 199 -250 rmoveto
          43 0 46 8 76 35 rrcurveto
          -49 -8 -35 -4 -26 0 rrcurveto
          -83 0 -91 36 0 90 rrcurveto
          0 67 50 26 40 0 rrcurveto
          239 0 rlineto
          41 70 rlineto
          -137 0 rlineto
          -58 0 -61 65 -61 75 rrcurveto
          -43 -70 rlineto
          19 -28 28 -29 15 -13 rrcurveto
          -2 0 rlineto
          -96 0 -54 -78 0 -82 rrcurveto
          0 -104 86 -56 113 0 rrcurveto
          endchar
        </CharString>
        <CharString name="hah-ar.4">
          607 131 -110 rmoveto
          331 0 rlineto
          41 70 rlineto
          -344 0 rlineto
          -32 0 -22 3 -23 23 rrcurveto
          -31 31 rlineto
          -17 17 9 47 14 -14 rrcurveto
          52 -52 rlineto
          10 -10 9 -5 12 0 rrcurveto
          386 0 rlineto
          41 70 rlineto
          -137 0 rlineto
          -58 0 -61 65 -61 75 rrcurveto
          -43 -70 rlineto
          19 -28 28 -29 15 -13 rrcurveto
          -93 0 rlineto
          -9 0 -5 5 -4 4 rrcurveto
          -64 64 rlineto
          -50 50 -44 -149 0 -49 rrcurveto
          0 -85 57 -19 74 -1 rrcurveto
          endchar
        </CharString>
        <CharString name="hah-ar.5">
          627 131 -110 rmoveto
          351 0 rlineto
          41 70 rlineto
          -364 0 rlineto
          -32 0 -22 3 -23 23 rrcurveto
          -31 31 rlineto
          -17 17 9 47 14 -14 rrcurveto
          52 -52 rlineto
          10 -10 9 -5 12 0 rrcurveto
          406 0 rlineto
          41 70 rlineto
          -157 0 rlineto
          -58 0 -61 65 -61 75 rrcurveto
          -43 -70 rlineto
          19 -28 28 -29 15 -13 rrcurveto
          -93 0 rlineto
          -9 0 -5 5 -4 4 rrcurveto
          -64 64 rlineto
          -50 50 -44 -149 0 -49 rrcurveto
          0 -85 57 -19 74 -1 rrcurveto
          endchar
        </CharString>
        <CharString name="hah-ar.fina">
          371 312 -160 rmoveto
          59 57 rlineto
          -59 103 rlineto
          59 0 rlineto
          0 70 rlineto
          -100 0 rlineto
          -92 160 rlineto
          -59 -57 rlineto
          59 -103 rlineto
          -29 0 rlineto
          -96 0 -54 -78 0 -82 rrcurveto
          0 -104 86 -56 113 0 rrcurveto
          43 0 46 8 76 35 rrcurveto
          -49 -8 -35 -4 -26 0 rrcurveto
          -83 0 -91 36 0 90 rrcurveto
          0 67 50 26 40 0 rrcurveto
          50 0 rlineto
          endchar
        </CharString>
        <CharString name="hah-ar.fina.1">
          490 199 -250 rmoveto
          43 0 46 8 76 35 rrcurveto
          -49 -8 -35 -4 -26 0 rrcurveto
          -83 0 -91 36 0 90 rrcurveto
          0 67 50 26 40 0 rrcurveto
          239 0 rlineto
          41 70 rlineto
          -137 0 rlineto
          -58 0 -61 65 -61 75 rrcurveto
          -43 -70 rlineto
          19 -28 28 -29 15 -13 rrcurveto
          -2 0 rlineto
          -96 0 -54 -78 0 -82 rrcurveto
          0 -104 86 -56 113 0 rrcurveto
          endchar
        </CharString>
        <CharString name="hah-ar.init">
          400 -20 0 rmoveto
          339 0 rlineto
          41 70 rlineto
          -137 0 rlineto
          -58 0 -61 65 -61 75 rrcurveto
          -43 -70 rlineto
          19 -28 28 -29 15 -13 rrcurveto
          -82 0 rlineto
          endchar
        </CharString>
        <CharString name="hah-ar.init.1">
          420 -20 0 rmoveto
          359 0 rlineto
          41 70 rlineto
          -157 0 rlineto
          -58 0 -61 65 -61 75 rrcurveto
          -43 -70 rlineto
          19 -28 28 -29 15 -13 rrcurveto
          -82 0 rlineto
          endchar
        </CharString>
        <CharString name="hah-ar.init.2">
          440 -20 0 rmoveto
          379 0 rlineto
          41 70 rlineto
          -177 0 rlineto
          -58 0 -61 65 -61 75 rrcurveto
          -43 -70 rlineto
          19 -28 28 -29 15 -13 rrcurveto
          -82 0 rlineto
          endchar
        </CharString>
        <CharString name="hah-ar.medi">
          191 192 -160 rmoveto
          59 57 rlineto
          -59 103 rlineto
          59 0 rlineto
          0 70 rlineto
          -100 0 rlineto
          -92 160 rlineto
          -59 -57 rlineto
          59 -103 rlineto
          -79 0 rlineto
          0 -70 rlineto
          100 0 rlineto
          19 0 rlineto
          endchar
        </CharString>
        <CharString name="hah-ar.medi.1">
          400 -20 0 rmoveto
          339 0 rlineto
          41 70 rlineto
          -137 0 rlineto
          -58 0 -61 65 -61 75 rrcurveto
          -43 -70 rlineto
          19 -28 28 -29 15 -13 rrcurveto
          -82 0 rlineto
          endchar
        </CharString>
        <CharString name="hamza-ar">
          296 165 50 rmoveto
          -15 0 -9 12 0 14 rrcurveto
          0 15 12 16 26 0 rrcurveto
          10 0 11 -2 13 -5 rrcurveto
          -10 32 -25 18 -25 0 rrcurveto
          -55 0 -23 -56 13 -44 rrcurveto
          -19 0 rlineto
          -29 -50 rlineto
          186 0 rlineto
          30 50 rlineto
          -91 0 rlineto
          endchar
        </CharString>
        <CharString name="hamzaabove-ar">
          0 72 29 rmoveto
          -8 0 -5 7 0 8 rrcurveto
          0 9 7 9 15 0 rrcurveto
          5 0 7 -1 7 -3 rrcurveto
          -6 18 -14 11 -14 0 rrcurveto
          -32 0 -14 -33 8 -25 rrcurveto
          -11 0 rlineto
          -17 -29 rlineto
          108 0 rlineto
          17 29 rlineto
          -53 0 rlineto
          endchar
        </CharString>
        <CharString name="hamzabelow-ar">
          0 72 29 rmoveto
          -8 0 -5 7 0 8 rrcurveto
          0 9 7 9 15 0 rrcurveto
          5 0 7 -1 7 -3 rrcurveto
          -6 18 -14 11 -14 0 rrcurveto
          -32 0 -14 -33 8 -25 rrcurveto
          -11 0 rlineto
          -17 -29 rlineto
          108 0 rlineto
          17 29 rlineto
          -53 0 rlineto
          endchar
        </CharString>
        <CharString name="heh-ar">
          240 100 0 rmoveto
          65 0 35 30 0 60 rrcurveto
          0 0 rlineto
          0 0 rlineto
          0 130 rlineto
          -20 -35 -40 -5 -40 0 rrcurveto
          0 0 rlineto
          0 0 rlineto
          -55 0 -45 -40 0 -50 rrcurveto
          0 -60 45 -30 55 0 rrcurveto
          0 70 rmoveto
          -11 0 -9 9 0 11 rrcurveto
          0 11 9 9 11 0 rrcurveto
          11 0 9 -9 0 -11 rrcurveto
          0 -11 -9 -9 -11 0 rrcurveto
          endchar
        </CharString>
        <CharString name="heh-ar.1">
          240 100 0 rmoveto
          65 0 35 30 0 60 rrcurveto
          0 0 rlineto
          0 0 rlineto
          0 130 rlineto
          0 0 0 0 0 0 rrcurveto
          0 110 rlineto
          -80 -20 rlineto
          0 -129 rlineto
          -7 -1 -6 0 -7 0 rrcurveto
          0 0 rlineto
          0 0 rlineto
          -55 0 -45 -40 0 -50 rrcurveto
          0 -60 45 -30 55 0 rrcurveto
          0 70 rmoveto
          -11 0 -9 9 0 11 rrcurveto
          0 11 9 9 11 0 rrcurveto
          11 0 9 -9 0 -11 rrcurveto
          0 -11 -9 -9 -11 0 rrcurveto
          endchar
        </CharString>
        <CharString name="heh-ar.2">
          240 100 0 rmoveto
          65 0 35 30 0 60 rrcurveto
          0 0 rlineto
          0 0 rlineto
          0 130 rlineto
          0 0 0 0 0 0 rrcurveto
          0 340 rlineto
          -80 -20 rlineto
          0 -359 rlineto
          -7 -1 -6 0 -7 0 rrcurveto
          0 0 rlineto
          0 0 rlineto
          -55 0 -45 -40 0 -50 rrcurveto
          0 -60 45 -30 55 0 rrcurveto
          0 70 rmoveto
          -11 0 -9 9 0 11 rrcurveto
          0 11 9 9 11 0 rrcurveto
          11 0 9 -9 0 -11 rrcurveto
          0 -11 -9 -9 -11 0 rrcurveto
          endchar
        </CharString>
        <CharString name="heh-ar.fina">
          240 100 0 rmoveto
          140 0 rlineto
          0 70 rlineto
          -40 0 rlineto
          0 20 rlineto
          0 0 rlineto
          0 130 rlineto
          -20 -35 -40 -5 -40 0 rrcurveto
          0 0 rlineto
          0 0 rlineto
          -55 0 -45 -40 0 -50 rrcurveto
          0 -60 45 -30 55 0 rrcurveto
          0 70 rmoveto
          0 0 rlineto
          -11 0 -9 9 0 11 rrcurveto
          0 11 9 9 11 0 rrcurveto
          11 0 9 -9 0 -11 rrcurveto
          0 0 rlineto
          0 -11 -9 -9 -11 0 rrcurveto
          endchar
        </CharString>
        <CharString name="heh-ar.fina.1">
          240 100 0 rmoveto
          140 0 rlineto
          0 70 rlineto
          -40 0 rlineto
          0 20 rlineto
          0 0 rlineto
          0 130 rlineto
          0 0 0 0 0 0 rrcurveto
          0 110 rlineto
          -80 -20 rlineto
          0 -129 rlineto
          -7 -1 -6 0 -7 0 rrcurveto
          0 0 rlineto
          0 0 rlineto
          -55 0 -45 -40 0 -50 rrcurveto
          0 -60 45 -30 55 0 rrcurveto
          0 70 rmoveto
          0 0 rlineto
          -11 0 -9 9 0 11 rrcurveto
          0 11 9 9 11 0 rrcurveto
          11 0 9 -9 0 -11 rrcurveto
          0 0 rlineto
          0 -11 -9 -9 -11 0 rrcurveto
          endchar
        </CharString>
        <CharString name="heh-ar.fina.2">
          240 100 0 rmoveto
          140 0 rlineto
          0 70 rlineto
          -40 0 rlineto
          0 20 rlineto
          0 0 rlineto
          0 130 rlineto
          0 0 0 0 0 0 rrcurveto
          0 340 rlineto
          -80 -20 rlineto
          0 -359 rlineto
          -7 -1 -6 0 -7 0 rrcurveto
          0 0 rlineto
          0 0 rlineto
          -55 0 -45 -40 0 -50 rrcurveto
          0 -60 45 -30 55 0 rrcurveto
          0 70 rmoveto
          0 0 rlineto
          -11 0 -9 9 0 11 rrcurveto
          0 11 9 9 11 0 rrcurveto
          11 0 9 -9 0 -11 rrcurveto
          0 0 rlineto
          0 -11 -9 -9 -11 0 rrcurveto
          endchar
        </CharString>
        <CharString name="heh-ar.init">
          240 100 -110 rmoveto
          65 0 35 30 0 60 rrcurveto
          0 0 rlineto
          0 0 rlineto
          0 235 rlineto
          -20 -35 -40 0 -40 0 rrcurveto
          0 0 rlineto
          0 0 rlineto
          0 0 rlineto
          -55 0 -45 -40 0 -50 rrcurveto
          0 -7 1 -7 1 -6 rrcurveto
          -52 0 rlineto
          0 -70 rlineto
          52 0 rlineto
          -1 -6 -1 -7 0 -7 rrcurveto
          0 -60 45 -30 55 0 rrcurveto
          0 180 rmoveto
          -11 0 -9 9 0 11 rrcurveto
          0 11 9 9 11 0 rrcurveto
          11 0 9 -9 0 -11 rrcurveto
          0 -11 -9 -9 -11 0 rrcurveto
          0 -110 rmoveto
          -11 0 -9 9 0 11 rrcurveto
          0 11 9 9 11 0 rrcurveto
          11 0 9 -9 0 -11 rrcurveto
          0 -11 -9 -9 -11 0 rrcurveto
          endchar
        </CharString>
        <CharString name="heh-ar.init.1">
          240 100 -110 rmoveto
          65 0 35 30 0 60 rrcurveto
          0 0 rlineto
          0 0 rlineto
          0 235 rlineto
          0 0 0 0 0 0 rrcurveto
          0 36 rlineto
          -80 -20 rlineto
          0 -51 rlineto
          -7 0 -6 0 -7 0 rrcurveto
          0 0 rlineto
          0 0 rlineto
          0 0 rlineto
          -55 0 -45 -40 0 -50 rrcurveto
          0 -7 1 -7 1 -6 rrcurveto
          -52 0 rlineto
          0 -70 rlineto
          52 0 rlineto
          -1 -6 -1 -7 0 -7 rrcurveto
          0 -60 45 -30 55 0 rrcurveto
          0 180 rmoveto
          -11 0 -9 9 0 11 rrcurveto
          0 11 9 9 11 0 rrcurveto
          11 0 9 -9 0 -11 rrcurveto
          0 -11 -9 -9 -11 0 rrcurveto
          0 -110 rmoveto
          -11 0 -9 9 0 11 rrcurveto
          0 11 9 9 11 0 rrcurveto
          11 0 9 -9 0 -11 rrcurveto
          0 -11 -9 -9 -11 0 rrcurveto
          endchar
        </CharString>
        <CharString name="heh-ar.init.2">
          240 -20 0 rmoveto
          199 0 rlineto
          6 0 15 0 0 11 rrcurveto
          0 29 rlineto
          0 0 rlineto
          0 235 rlineto
          -20 -35 -40 0 -40 0 rrcurveto
          0 0 rlineto
          0 0 rlineto
          0 0 rlineto
          -55 0 -45 -40 0 -50 rrcurveto
          0 -11 2 -10 4 -9 rrcurveto
          -4 -9 -2 -10 0 -11 rrcurveto
          0 -7 1 -7 1 -6 rrcurveto
          -22 0 rlineto
          120 60 rmoveto
          -11 0 -9 9 0 11 rrcurveto
          0 11 9 9 11 0 rrcurveto
          11 0 9 -9 0 -11 rrcurveto
          0 0 rlineto
          0 -11 -9 -9 -11 0 rrcurveto
          0 -60 rmoveto
          0 0 rlineto
          -11 0 -9 9 0 11 rrcurveto
          0 11 9 9 11 0 rrcurveto
          11 0 9 -9 0 -11 rrcurveto
          0 0 rlineto
          0 -11 -9 -9 -11 0 rrcurveto
          endchar
        </CharString>
        <CharString name="heh-ar.init.3">
          240 -20 0 rmoveto
          199 0 rlineto
          6 0 15 0 0 11 rrcurveto
          0 29 rlineto
          0 0 rlineto
          0 235 rlineto
          0 0 0 0 0 0 rrcurveto
          0 35 rlineto
          -80 -20 rlineto
          0 -50 rlineto
          -7 0 -6 0 -7 0 rrcurveto
          0 0 rlineto
          0 0 rlineto
          0 0 rlineto
          -55 0 -45 -40 0 -50 rrcurveto
          0 -11 2 -10 4 -9 rrcurveto
          -4 -9 -2 -10 0 -11 rrcurveto
          0 -7 1 -7 1 -6 rrcurveto
          -22 0 rlineto
          120 60 rmoveto
          -11 0 -9 9 0 11 rrcurveto
          0 11 9 9 11 0 rrcurveto
          11 0 9 -9 0 -11 rrcurveto
          0 0 rlineto
          0 -11 -9 -9 -11 0 rrcurveto
          0 -60 rmoveto
          0 0 rlineto
          -11 0 -9 9 0 11 rrcurveto
          0 11 9 9 11 0 rrcurveto
          11 0 9 -9 0 -11 rrcurveto
          0 0 rlineto
          0 -11 -9 -9 -11 0 rrcurveto
          endchar
        </CharString>
        <CharString name="heh-ar.init.4">
          240 -20 0 rmoveto
          199 0 rlineto
          6 0 15 0 0 11 rrcurveto
          0 9 rlineto
          0 0 rlineto
          0 235 rlineto
          -20 -35 -20 0 -40 0 rrcurveto
          0 0 rlineto
          0 0 rlineto
          0 0 rlineto
          -65 0 -57 -32 0 -72 rrcurveto
          0 -18 4 -16 6 -12 rrcurveto
          -28 0 rlineto
          100 44 rmoveto
          2 20 17 16 21 0 rrcurveto
          -2 -20 -17 -16 -21 0 rrcurveto
          40 -44 rmoveto
          -21 0 -17 16 -2 20 rrcurveto
          21 0 17 -16 2 -20 rrcurveto
          endchar
        </CharString>
        <CharString name="heh-ar.init.5">
          240 -20 0 rmoveto
          199 0 rlineto
          6 0 15 0 0 11 rrcurveto
          0 9 rlineto
          0 0 rlineto
          0 235 rlineto
          0 0 0 0 0 0 rrcurveto
          0 35 rlineto
          -80 -20 rlineto
          0 -50 rlineto
          -65 0 -57 -32 0 -72 rrcurveto
          0 -18 4 -16 6 -12 rrcurveto
          -28 0 rlineto
          100 44 rmoveto
          2 20 17 16 21 0 rrcurveto
          -2 -20 -17 -16 -21 0 rrcurveto
          40 -44 rmoveto
          -21 0 -17 16 -2 20 rrcurveto
          21 0 17 -16 2 -20 rrcurveto
          endchar
        </CharString>
        <CharString name="heh-ar.init.6">
          240 -20 0 rmoveto
          199 0 rlineto
          6 0 15 0 0 11 rrcurveto
          0 9 rlineto
          0 0 rlineto
          0 245 rlineto
          -16 -28 -24 -7 -40 0 rrcurveto
          -74 0 -46 -40 0 -63 rrcurveto
          0 -23 6 -20 6 -14 rrcurveto
          -32 0 rlineto
          109 90 rmoveto
          31 -30 rlineto
          0 0 rlineto
          -40 -10 rlineto
          31 -50 rmoveto
          -31 30 rlineto
          40 10 rlineto
          0 0 rlineto
          -9 -40 rlineto
          endchar
        </CharString>
        <CharString name="heh-ar.init.7">
          240 -20 0 rmoveto
          199 0 rlineto
          6 0 15 0 0 11 rrcurveto
          0 9 rlineto
          0 0 rlineto
          0 245 rlineto
          0 35 rlineto
          -80 -20 rlineto
          0 -50 rlineto
          -74 0 -46 -40 0 -63 rrcurveto
          0 -23 6 -20 6 -14 rrcurveto
          -32 0 rlineto
          109 90 rmoveto
          31 -30 rlineto
          0 0 rlineto
          -40 -10 rlineto
          31 -50 rmoveto
          -31 30 rlineto
          40 10 rlineto
          0 0 rlineto
          -9 -40 rlineto
          endchar
        </CharString>
        <CharString name="heh-ar.medi">
          240 100 -110 rmoveto
          65 0 35 30 0 60 rrcurveto
          0 0 rlineto
          0 0 rlineto
          0 20 rlineto
          40 0 rlineto
          0 70 rlineto
          -40 0 rlineto
          0 145 rlineto
          -20 -35 -40 0 -40 0 rrcurveto
          0 0 rlineto
          0 0 rlineto
          0 0 rlineto
          -55 0 -45 -40 0 -50 rrcurveto
          0 -7 1 -7 1 -6 rrcurveto
          -52 0 rlineto
          0 -70 rlineto
          52 0 rlineto
          -1 -6 -1 -7 0 -7 rrcurveto
          0 -60 45 -30 55 0 rrcurveto
          0 180 rmoveto
          -11 0 -9 9 0 11 rrcurveto
          0 11 9 9 11 0 rrcurveto
          11 0 9 -9 0 -11 rrcurveto
          0 -11 -9 -9 -11 0 rrcurveto
          0 -110 rmoveto
          -11 0 -9 9 0 11 rrcurveto
          0 11 9 9 11 0 rrcurveto
          11 0 9 -9 0 -11 rrcurveto
          0 -11 -9 -9 -11 0 rrcurveto
          endchar
        </CharString>
        <CharString name="heh-ar.medi.1">
          240 100 -110 rmoveto
          65 0 35 30 0 60 rrcurveto
          0 0 rlineto
          0 0 rlineto
          0 20 rlineto
          40 0 rlineto
          0 70 rlineto
          -40 0 rlineto
          0 145 rlineto
          0 0 0 0 0 0 rrcurveto
          0 36 rlineto
          -80 -20 rlineto
          0 -51 rlineto
          -7 0 -6 0 -7 0 rrcurveto
          0 0 rlineto
          0 0 rlineto
          0 0 rlineto
          -55 0 -45 -40 0 -50 rrcurveto
          0 -7 1 -7 1 -6 rrcurveto
          -52 0 rlineto
          0 -70 rlineto
          52 0 rlineto
          -1 -6 -1 -7 0 -7 rrcurveto
          0 -60 45 -30 55 0 rrcurveto
          0 180 rmoveto
          -11 0 -9 9 0 11 rrcurveto
          0 11 9 9 11 0 rrcurveto
          11 0 9 -9 0 -11 rrcurveto
          0 -11 -9 -9 -11 0 rrcurveto
          0 -110 rmoveto
          -11 0 -9 9 0 11 rrcurveto
          0 11 9 9 11 0 rrcurveto
          11 0 9 -9 0 -11 rrcurveto
          0 -11 -9 -9 -11 0 rrcurveto
          endchar
        </CharString>
        <CharString name="heh-ar.medi.2">
          240 -20 0 rmoveto
          260 0 rlineto
          0 70 rlineto
          -40 0 rlineto
          0 205 rlineto
          -20 -35 -40 0 -40 0 rrcurveto
          0 0 rlineto
          0 0 rlineto
          0 0 rlineto
          -55 0 -45 -40 0 -50 rrcurveto
          0 -11 2 -10 4 -9 rrcurveto
          -4 -9 -2 -10 0 -11 rrcurveto
          0 -7 1 -7 1 -6 rrcurveto
          -22 0 rlineto
          120 60 rmoveto
          -11 0 -9 9 0 11 rrcurveto
          0 11 9 9 11 0 rrcurveto
          11 0 9 -9 0 -11 rrcurveto
          0 0 rlineto
          0 -11 -9 -9 -11 0 rrcurveto
          0 -60 rmoveto
          0 0 rlineto
          -11 0 -9 9 0 11 rrcurveto
          0 11 9 9 11 0 rrcurveto
          11 0 9 -9 0 -11 rrcurveto
          0 0 rlineto
          0 -11 -9 -9 -11 0 rrcurveto
          endchar
        </CharString>
        <CharString name="heh-ar.medi.3">
          240 -20 0 rmoveto
          260 0 rlineto
          0 70 rlineto
          -40 0 rlineto
          0 205 rlineto
          0 0 0 0 0 0 rrcurveto
          0 35 rlineto
          -80 -20 rlineto
          0 -50 rlineto
          -7 0 -6 0 -7 0 rrcurveto
          0 0 rlineto
          0 0 rlineto
          0 0 rlineto
          -55 0 -45 -40 0 -50 rrcurveto
          0 -11 2 -10 4 -9 rrcurveto
          -4 -9 -2 -10 0 -11 rrcurveto
          0 -7 1 -7 1 -6 rrcurveto
          -22 0 rlineto
          120 60 rmoveto
          -11 0 -9 9 0 11 rrcurveto
          0 11 9 9 11 0 rrcurveto
          11 0 9 -9 0 -11 rrcurveto
          0 0 rlineto
          0 -11 -9 -9 -11 0 rrcurveto
          0 -60 rmoveto
          0 0 rlineto
          -11 0 -9 9 0 11 rrcurveto
          0 11 9 9 11 0 rrcurveto
          11 0 9 -9 0 -11 rrcurveto
          0 0 rlineto
          0 -11 -9 -9 -11 0 rrcurveto
          endchar
        </CharString>
        <CharString name="heh-ar.medi.4">
          240 -20 0 rmoveto
          260 0 rlineto
          0 70 rlineto
          -40 0 rlineto
          0 185 rlineto
          -20 -35 -20 0 -40 0 rrcurveto
          0 0 rlineto
          0 0 rlineto
          0 0 rlineto
          -65 0 -57 -32 0 -72 rrcurveto
          0 -18 4 -16 6 -12 rrcurveto
          -28 0 rlineto
          100 44 rmoveto
          2 20 17 16 21 0 rrcurveto
          -2 -20 -17 -16 -21 0 rrcurveto
          40 -44 rmoveto
          -21 0 -17 16 -2 20 rrcurveto
          21 0 17 -16 2 -20 rrcurveto
          endchar
        </CharString>
        <CharString name="heh-ar.medi.5">
          240 -20 0 rmoveto
          260 0 rlineto
          0 70 rlineto
          -40 0 rlineto
          0 185 rlineto
          0 0 0 0 0 0 rrcurveto
          0 35 rlineto
          -80 -20 rlineto
          0 -50 rlineto
          -65 0 -57 -32 0 -72 rrcurveto
          0 -18 4 -16 6 -12 rrcurveto
          -28 0 rlineto
          100 44 rmoveto
          2 20 17 16 21 0 rrcurveto
          -2 -20 -17 -16 -21 0 rrcurveto
          40 -44 rmoveto
          -21 0 -17 16 -2 20 rrcurveto
          21 0 17 -16 2 -20 rrcurveto
          endchar
        </CharString>
        <CharString name="heh-ar.medi.6">
          240 -20 0 rmoveto
          260 0 rlineto
          0 70 rlineto
          -40 0 rlineto
          0 195 rlineto
          -16 -28 -24 -7 -40 0 rrcurveto
          -74 0 -46 -40 0 -63 rrcurveto
          0 -23 6 -20 6 -14 rrcurveto
          -32 0 rlineto
          109 90 rmoveto
          31 -30 rlineto
          0 0 rlineto
          -40 -10 rlineto
          31 -50 rmoveto
          -31 30 rlineto
          40 10 rlineto
          0 0 rlineto
          -9 -40 rlineto
          endchar
        </CharString>
        <CharString name="heh-ar.medi.7">
          240 -20 0 rmoveto
          260 0 rlineto
          0 70 rlineto
          -40 0 rlineto
          0 195 rlineto
          0 35 rlineto
          -80 -20 rlineto
          0 -50 rlineto
          -74 0 -46 -40 0 -63 rrcurveto
          0 -23 6 -20 6 -14 rrcurveto
          -32 0 rlineto
          109 90 rmoveto
          31 -30 rlineto
          0 0 rlineto
          -40 -10 rlineto
          31 -50 rmoveto
          -31 30 rlineto
          40 10 rlineto
          0 0 rlineto
          -9 -40 rlineto
          endchar
        </CharString>
        <CharString name="jeem-ar">
          640 90 -110 rmoveto
          405 0 rlineto
          41 70 rlineto
          -436 0 rlineto
          -11 0 -9 9 0 11 rrcurveto
          0 11 9 9 11 0 rrcurveto
          459 0 rlineto
          41 70 rlineto
          -137 0 rlineto
          -58 0 -61 65 -61 75 rrcurveto
          -43 -70 rlineto
          19 -28 28 -29 15 -13 rrcurveto
          -212 0 rlineto
          -50 0 -40 -40 0 -50 rrcurveto
          0 -50 40 -40 50 0 rrcurveto
          180 -124 rmoveto
          47 79 rlineto
          -17 10 rlineto
          -47 -79 rlineto
          endchar
        </CharString>
        <CharString name="kaf-ar">
          640 116 0 rmoveto
          463 0 rlineto
          6 0 15 0 0 21 rrcurveto
          0 139 -70 20 -44 0 rrcurveto
          -366 0 rlineto
          0 380 rlineto
          -80 -20 rlineto
          0 -430 rlineto
          436 0 rlineto
          22 0 18 -18 0 -22 rrcurveto
          -476 0 rlineto
          -40 -70 rlineto
          116 0 rlineto
          endchar
        </CharString>
        <CharString name="kaf-ar.1">
          640 62 110 rmoveto
          414 0 rlineto
          22 0 18 -18 0 -22 rrcurveto
          -476 0 rlineto
          -40 -70 rlineto
          579 0 rlineto
          6 0 15 0 0 21 rrcurveto
          0 139 -70 20 -44 0 rrcurveto
          -360 0 rlineto
          41 74 22 88 0 101 rrcurveto
          0 37 -3 39 -6 41 rrcurveto
          -80 -80 rlineto
          7 -40 4 -42 0 -43 rrcurveto
          0 -83 -15 -85 -34 -77 rrcurveto
          endchar
        </CharString>
        <CharString name="kaf-ar.2">
          640 116 0 rmoveto
          463 0 rlineto
          6 0 15 0 0 21 rrcurveto
          0 139 -70 20 -44 0 rrcurveto
          -366 0 rlineto
          27 70 rlineto
          -3 0 rlineto
          -80 -140 rlineto
          412 0 rlineto
          22 0 18 -18 0 -22 rrcurveto
          -476 0 rlineto
          -40 -70 rlineto
          116 0 rlineto
          endchar
        </CharString>
        <CharString name="kaf-ar.fina">
          640 116 0 rmoveto
          524 0 rlineto
          0 70 rlineto
          -43 0 rlineto
          -15 95 -58 15 -38 0 rrcurveto
          -366 0 rlineto
          0 380 rlineto
          -80 -20 rlineto
          0 -430 rlineto
          436 0 rlineto
          22 0 18 -18 0 -22 rrcurveto
          -476 0 rlineto
          -40 -70 rlineto
          116 0 rlineto
          endchar
        </CharString>
        <CharString name="kaf-ar.fina.1">
          640 62 110 rmoveto
          414 0 rlineto
          22 0 18 -18 0 -22 rrcurveto
          -476 0 rlineto
          -40 -70 rlineto
          640 0 rlineto
          0 70 rlineto
          -43 0 rlineto
          -15 95 -58 15 -38 0 rrcurveto
          -360 0 rlineto
          41 74 22 88 0 101 rrcurveto
          0 37 -3 39 -6 41 rrcurveto
          -80 -80 rlineto
          7 -40 4 -42 0 -43 rrcurveto
          0 -83 -15 -85 -34 -77 rrcurveto
          endchar
        </CharString>
        <CharString name="kaf-ar.fina.2">
          640 116 0 rmoveto
          524 0 rlineto
          0 70 rlineto
          -43 0 rlineto
          -15 95 -58 15 -38 0 rrcurveto
          -366 0 rlineto
          27 70 rlineto
          -3 0 rlineto
          -80 -140 rlineto
          412 0 rlineto
          22 0 18 -18 0 -22 rrcurveto
          -476 0 rlineto
          -40 -70 rlineto
          116 0 rlineto
          endchar
        </CharString>
        <CharString name="kaf-ar.init">
          580 -20 0 rmoveto
          539 0 rlineto
          6 0 15 0 0 21 rrcurveto
          0 139 -70 20 -44 0 rrcurveto
          -370 0 rlineto
          27 70 rlineto
          -3 0 rlineto
          -80 -140 rlineto
          416 0 rlineto
          22 0 18 -18 0 -22 rrcurveto
          -476 0 rlineto
          endchar
        </CharString>
        <CharString name="kaf-ar.init.1">
          600 22 110 rmoveto
          414 0 rlineto
          22 0 18 -18 0 -22 rrcurveto
          -494 0 rlineto
          0 -70 rlineto
          557 0 rlineto
          6 0 15 0 0 21 rrcurveto
          0 139 -70 20 -44 0 rrcurveto
          -360 0 rlineto
          62 111 14 132 -22 137 rrcurveto
          -80 -80 rlineto
          25 -125 -11 -134 -52 -111 rrcurveto
          endchar
        </CharString>
        <CharString name="kaf-ar.init.2">
          600 -20 0 rmoveto
          559 0 rlineto
          6 0 15 0 0 21 rrcurveto
          0 139 -70 20 -44 0 rrcurveto
          -366 0 rlineto
          0 380 rlineto
          -80 -20 rlineto
          0 -430 rlineto
          436 0 rlineto
          22 0 18 -18 0 -22 rrcurveto
          -496 0 rlineto
          endchar
        </CharString>
        <CharString name="kaf-ar.medi">
          580 -20 0 rmoveto
          600 0 rlineto
          0 70 rlineto
          -43 0 rlineto
          -15 95 -58 15 -38 0 rrcurveto
          -370 0 rlineto
          27 70 rlineto
          -3 0 rlineto
          -80 -140 rlineto
          416 0 rlineto
          22 0 18 -18 0 -22 rrcurveto
          -476 0 rlineto
          endchar
        </CharString>
        <CharString name="kaf-ar.medi.1">
          600 -20 0 rmoveto
          620 0 rlineto
          0 70 rlineto
          -43 0 rlineto
          -15 95 -58 15 -38 0 rrcurveto
          -366 0 rlineto
          0 380 rlineto
          -80 -20 rlineto
          0 -430 rlineto
          436 0 rlineto
          22 0 18 -18 0 -22 rrcurveto
          -496 0 rlineto
          endchar
        </CharString>
        <CharString name="kaf-ar.medi.2">
          600 22 110 rmoveto
          414 0 rlineto
          22 0 18 -18 0 -22 rrcurveto
          -494 0 rlineto
          0 -70 rlineto
          618 0 rlineto
          0 70 rlineto
          -43 0 rlineto
          -15 95 -58 15 -38 0 rrcurveto
          -360 0 rlineto
          62 111 14 132 -22 137 rrcurveto
          -80 -80 rlineto
          25 -125 -11 -134 -52 -111 rrcurveto
          endchar
        </CharString>
        <CharString name="kashida-ar">
          80 -20 0 rmoveto
          100 0 rlineto
          0 70 rlineto
          -100 0 rlineto
          endchar
        </CharString>
        <CharString name="khah-ar">
          640 90 -110 rmoveto
          405 0 rlineto
          41 70 rlineto
          -436 0 rlineto
          -11 0 -9 9 0 11 rrcurveto
          0 11 9 9 11 0 rrcurveto
          459 0 rlineto
          41 70 rlineto
          -137 0 rlineto
          -58 0 -61 65 -61 75 rrcurveto
          -43 -70 rlineto
          19 -28 28 -29 15 -13 rrcurveto
          -212 0 rlineto
          -50 0 -40 -40 0 -50 rrcurveto
          0 -50 40 -40 50 0 rrcurveto
          419 273 rmoveto
          47 79 rlineto
          -17 10 rlineto
          -47 -79 rlineto
          endchar
        </CharString>
        <CharString name="lam-ar">
          190 -130 -250 rmoveto
          242 0 rlineto
          23 0 15 15 0 25 rrcurveto
          0 770 rlineto
          -80 -20 rlineto
          0 -720 rlineto
          -100 0 rlineto
          -20 0 -17 5 -11 15 rrcurveto
          endchar
        </CharString>
        <CharString name="lam-ar.fina">
          190 -130 -250 rmoveto
          242 0 rlineto
          23 0 15 15 0 25 rrcurveto
          0 210 rlineto
          40 0 rlineto
          0 70 rlineto
          -22 0 -18 18 0 22 rrcurveto
          0 450 rlineto
          -80 -20 rlineto
          0 -720 rlineto
          -100 0 rlineto
          -20 0 -17 5 -11 15 rrcurveto
          endchar
        </CharString>
        <CharString name="lam-ar.init">
          120 -20 0 rmoveto
          62 0 rlineto
          23 0 15 15 0 25 rrcurveto
          0 520 rlineto
          -80 -20 rlineto
          0 -470 rlineto
          -20 0 rlineto
          endchar
        </CharString>
        <CharString name="lam-ar.init.hah">
          80 -20 0 rmoveto
          57 0 43 30 0 40 rrcurveto
          0 380 rlineto
          -80 -20 rlineto
          0 -360 rlineto
          0 -19 0 -26 -20 0 rrcurveto
          endchar
        </CharString>
        <CharString name="lam-ar.init.lellah">
          120 -20 0 rmoveto
          62 0 rlineto
          23 0 15 15 0 25 rrcurveto
          0 490 rlineto
          -80 -20 rlineto
          0 -440 rlineto
          -20 0 rlineto
          endchar
        </CharString>
        <CharString name="lam-ar.medi">
          120 -20 0 rmoveto
          140 0 rlineto
          0 70 rlineto
          -22 0 -18 18 0 22 rrcurveto
          0 450 rlineto
          -80 -20 rlineto
          0 -470 rlineto
          -20 0 rlineto
          endchar
        </CharString>
        <CharString name="lam-ar.medi.lellah">
          120 -20 0 rmoveto
          140 0 rlineto
          0 70 rlineto
          -22 0 -18 18 0 22 rrcurveto
          0 390 rlineto
          -80 -20 rlineto
          0 -410 rlineto
          -20 0 rlineto
          endchar
        </CharString>
        <CharString name="lam-ar.medi.yeh">
          120 80 80 rmoveto
          0 480 rlineto
          -80 -20 rlineto
          0 -540 rlineto
          120 0 rlineto
          0 70 rlineto
          -30 0 rlineto
          -7 0 -3 3 0 7 rrcurveto
          endchar
        </CharString>
        <CharString name="lam_alef-ar">
          360 0 0 rmoveto
          320 0 rlineto
          -114 197 rlineto
          65 109 39 134 12 120 rrcurveto
          -92 -40 rlineto
          -4 -101 -17 -84 -35 -81 rrcurveto
          -154 266 rlineto
          -60 -57 rlineto
          169 -294 rlineto
          -33 -54 -42 -55 -54 -60 rrcurveto
          156 123 rmoveto
          31 -53 rlineto
          -81 0 rlineto
          18 16 16 18 16 19 rrcurveto
          endchar
        </CharString>
        <CharString name="lam_alef-ar.1">
          255 0 0 rmoveto
          215 0 rlineto
          0 100 rlineto
          0 29 -13 31 -30 22 rrcurveto
          -92 66 rlineto
          0 312 rlineto
          -80 -20 rlineto
          0 -234 rlineto
          -213 154 rlineto
          -29 -77 rlineto
          242 -175 rlineto
          80 -58 rmoveto
          46 -33 rlineto
          4 -4 5 -5 0 -8 rrcurveto
          0 -30 rlineto
          -55 0 rlineto
          0 80 rlineto
          endchar
        </CharString>
        <CharString name="lam_alef-ar.2">
          320 0 0 rmoveto
          280 0 rlineto
          -108 142 rlineto
          68 68 rlineto
          0 350 rlineto
          -80 -20 rlineto
          0 -330 rlineto
          -20 -26 rlineto
          -20 26 rlineto
          0 350 rlineto
          -80 -20 rlineto
          0 -330 rlineto
          68 -68 rlineto
          32 -32 rmoveto
          40 -40 rlineto
          -17 -13 -46 0 -17 13 rrcurveto
          40 40 rlineto
          endchar
        </CharString>
        <CharString name="lam_alef-ar.3">
          320 0 0 rmoveto
          280 0 rlineto
          -108 142 rlineto
          68 68 rlineto
          0 350 rlineto
          -80 -20 rlineto
          0 -330 rlineto
          -20 -26 rlineto
          -20 26 rlineto
          0 320 rlineto
          -80 -20 rlineto
          0 -300 rlineto
          68 -68 rlineto
          32 -32 rmoveto
          40 -40 rlineto
          -17 -13 -46 0 -17 13 rrcurveto
          40 40 rlineto
          endchar
        </CharString>
        <CharString name="lam_alef-ar.4">
          400 0 0 rmoveto
          360 0 rlineto
          -46 34 -62 54 -42 52 rrcurveto
          41 41 rlineto
          13 13 16 18 0 23 rrcurveto
          0 325 rlineto
          -80 -20 rlineto
          0 -305 rlineto
          0 -16 -8 -18 -12 -21 rrcurveto
          -12 21 -8 18 0 16 rrcurveto
          0 325 rlineto
          -80 -20 rlineto
          0 -305 rlineto
          0 -18 16 -23 13 -13 rrcurveto
          41 -41 rlineto
          -42 -52 -62 -54 -46 -34 rrcurveto
          180 110 rmoveto
          40 -40 rlineto
          -80 0 rlineto
          40 40 rlineto
          endchar
        </CharString>
        <CharString name="lam_alef-ar.5">
          400 0 0 rmoveto
          360 0 rlineto
          -46 34 -62 54 -42 52 rrcurveto
          41 41 rlineto
          13 13 16 18 0 23 rrcurveto
          0 325 rlineto
          -80 -20 rlineto
          0 -305 rlineto
          0 -16 -8 -18 -12 -21 rrcurveto
          -12 21 -8 18 0 16 rrcurveto
          0 295 rlineto
          -80 -20 rlineto
          0 -275 rlineto
          0 -18 16 -23 13 -13 rrcurveto
          41 -41 rlineto
          -42 -52 -62 -54 -46 -34 rrcurveto
          180 110 rmoveto
          40 -40 rlineto
          -80 0 rlineto
          40 40 rlineto
          endchar
        </CharString>
        <CharString name="lam_alef-ar.fina">
          360 0 0 rmoveto
          360 0 rlineto
          0 70 rlineto
          -80 0 rlineto
          -74 127 rlineto
          65 109 39 134 12 120 rrcurveto
          -92 -40 rlineto
          -4 -101 -17 -84 -35 -81 rrcurveto
          -154 266 rlineto
          -60 -57 rlineto
          169 -294 rlineto
          -33 -54 -42 -55 -54 -60 rrcurveto
          156 123 rmoveto
          31 -53 rlineto
          -81 0 rlineto
          18 16 16 18 16 19 rrcurveto
          endchar
        </CharString>
        <CharString name="lam_alef-ar.fina.1">
          255 0 0 rmoveto
          255 0 rlineto
          0 70 rlineto
          -40 0 rlineto
          0 30 rlineto
          0 29 -13 31 -30 22 rrcurveto
          -92 66 rlineto
          0 312 rlineto
          -80 -20 rlineto
          0 -234 rlineto
          -213 154 rlineto
          -29 -77 rlineto
          242 -175 rlineto
          80 -58 rmoveto
          46 -33 rlineto
          4 -4 5 -5 0 -8 rrcurveto
          0 -30 rlineto
          -55 0 rlineto
          0 80 rlineto
          endchar
        </CharString>
        <CharString name="lam_alef-ar.fina.2">
          320 0 0 rmoveto
          320 0 rlineto
          0 70 rlineto
          -93 0 rlineto
          -55 72 rlineto
          68 68 rlineto
          0 350 rlineto
          -80 -20 rlineto
          0 -330 rlineto
          -20 -26 rlineto
          -20 26 rlineto
          0 350 rlineto
          -80 -20 rlineto
          0 -330 rlineto
          68 -68 rlineto
          32 -32 rmoveto
          40 -40 rlineto
          -17 -13 -46 0 -17 13 rrcurveto
          40 40 rlineto
          endchar
        </CharString>
        <CharString name="lam_alef-ar.fina.3">
          320 0 0 rmoveto
          320 0 rlineto
          0 70 rlineto
          -93 0 rlineto
          -55 72 rlineto
          68 68 rlineto
          0 350 rlineto
          -80 -20 rlineto
          0 -330 rlineto
          -20 -26 rlineto
          -20 26 rlineto
          0 320 rlineto
          -80 -20 rlineto
          0 -300 rlineto
          68 -68 rlineto
          32 -32 rmoveto
          40 -40 rlineto
          -17 -13 -46 0 -17 13 rrcurveto
          40 40 rlineto
          endchar
        </CharString>
        <CharString name="lam_alef-ar.fina.4">
          400 0 0 rmoveto
          400 0 rlineto
          0 70 rlineto
          -124 0 rlineto
          -24 22 -23 24 -19 24 rrcurveto
          41 41 rlineto
          13 13 16 18 0 23 rrcurveto
          0 325 rlineto
          -80 -20 rlineto
          0 -305 rlineto
          0 -16 -8 -18 -12 -21 rrcurveto
          -12 21 -8 18 0 16 rrcurveto
          0 325 rlineto
          -80 -20 rlineto
          0 -305 rlineto
          0 -18 16 -23 13 -13 rrcurveto
          41 -41 rlineto
          -42 -52 -62 -54 -46 -34 rrcurveto
          180 110 rmoveto
          40 -40 rlineto
          -80 0 rlineto
          40 40 rlineto
          endchar
        </CharString>
        <CharString name="lam_alef-ar.fina.5">
          400 0 0 rmoveto
          400 0 rlineto
          0 70 rlineto
          -124 0 rlineto
          -24 22 -23 24 -19 24 rrcurveto
          41 41 rlineto
          13 13 16 18 0 23 rrcurveto
          0 325 rlineto
          -80 -20 rlineto
          0 -305 rlineto
          0 -16 -8 -18 -12 -21 rrcurveto
          -12 21 -8 18 0 16 rrcurveto
          0 295 rlineto
          -80 -20 rlineto
          0 -275 rlineto
          0 -18 16 -23 13 -13 rrcurveto
          41 -41 rlineto
          -42 -52 -62 -54 -46 -34 rrcurveto
          180 110 rmoveto
          40 -40 rlineto
          -80 0 rlineto
          40 40 rlineto
          endchar
        </CharString>
        <CharString name="meem-ar">
          440 0 0 rmoveto
          300 0 rlineto
          65 0 35 30 0 60 rrcurveto
          0 50 -45 40 -55 0 rrcurveto
          -55 0 -45 -40 0 -50 rrcurveto
          0 -7 1 -7 1 -6 rrcurveto
          -102 0 rlineto
          -20 0 -17 5 -11 15 rrcurveto
          248 -20 rmoveto
          -11 0 -9 9 0 11 rrcurveto
          0 11 9 9 11 0 rrcurveto
          11 0 9 -9 0 -11 rrcurveto
          0 -11 -9 -9 -11 0 rrcurveto
          endchar
        </CharString>
        <CharString name="meem-ar.1">
          280 0 0 rmoveto
          140 0 rlineto
          0 0 rlineto
          65 0 35 30 0 60 rrcurveto
          0 50 -45 40 -55 0 rrcurveto
          -55 0 -45 -40 0 -50 rrcurveto
          0 -40 -5 -30 -35 -20 rrcurveto
          140 70 rmoveto
          -11 0 -9 9 0 11 rrcurveto
          0 11 9 9 11 0 rrcurveto
          11 0 9 -9 0 -11 rrcurveto
          0 -11 -9 -9 -11 0 rrcurveto
          endchar
        </CharString>
        <CharString name="meem-ar.2">
          278 138 -40 rmoveto
          65 0 35 30 0 60 rrcurveto
          0 50 -45 40 -55 0 rrcurveto
          -52 0 -43 -36 -5 -46 rrcurveto
          -3 -24 -10 -20 -25 -14 rrcurveto
          52 0 rlineto
          17 -27 32 -13 37 0 rrcurveto
          0 70 rmoveto
          -11 0 -9 9 0 11 rrcurveto
          0 11 9 9 11 0 rrcurveto
          11 0 9 -9 0 -11 rrcurveto
          0 -11 -9 -9 -11 0 rrcurveto
          endchar
        </CharString>
        <CharString name="meem-ar.fina">
          440 0 0 rmoveto
          440 0 rlineto
          0 70 rlineto
          -41 0 rlineto
          0 6 1 7 0 7 rrcurveto
          0 50 -45 40 -55 0 rrcurveto
          -55 0 -45 -40 0 -50 rrcurveto
          0 -7 1 -7 1 -6 rrcurveto
          -102 0 rlineto
          -20 0 -17 5 -11 15 rrcurveto
          248 -20 rmoveto
          -11 0 -9 9 0 11 rrcurveto
          0 11 9 9 11 0 rrcurveto
          11 0 9 -9 0 -11 rrcurveto
          0 -11 -9 -9 -11 0 rrcurveto
          endchar
        </CharString>
        <CharString name="meem-ar.fina.1">
          280 0 0 rmoveto
          280 0 rlineto
          0 70 rlineto
          -41 0 rlineto
          0 6 1 7 0 7 rrcurveto
          0 50 -45 40 -55 0 rrcurveto
          -55 0 -45 -40 0 -50 rrcurveto
          0 -40 -5 -30 -35 -20 rrcurveto
          140 70 rmoveto
          0 0 rlineto
          -11 0 -9 9 0 11 rrcurveto
          0 11 9 9 11 0 rrcurveto
          11 0 9 -9 0 -11 rrcurveto
          0 -11 -9 -9 -11 0 rrcurveto
          endchar
        </CharString>
        <CharString name="meem-ar.fina.2">
          278 138 -40 rmoveto
          43 0 30 13 16 27 rrcurveto
          51 0 rlineto
          0 70 rlineto
          -43 0 rlineto
          -10 40 -39 30 -48 0 rrcurveto
          -52 0 -43 -36 -5 -46 rrcurveto
          -3 -24 -10 -20 -25 -14 rrcurveto
          52 0 rlineto
          17 -27 32 -13 37 0 rrcurveto
          0 70 rmoveto
          -11 0 -9 9 0 11 rrcurveto
          0 11 9 9 11 0 rrcurveto
          11 0 9 -9 0 -11 rrcurveto
          0 -11 -9 -9 -11 0 rrcurveto
          endchar
        </CharString>
        <CharString name="meem-ar.init">
          240 -20 0 rmoveto
          120 0 rlineto
          65 0 35 30 0 60 rrcurveto
          0 50 -45 40 -55 0 rrcurveto
          -55 0 -45 -40 0 -50 rrcurveto
          0 -7 1 -7 1 -6 rrcurveto
          -22 0 rlineto
          120 0 rmoveto
          -11 0 -9 9 0 11 rrcurveto
          0 11 9 9 11 0 rrcurveto
          11 0 9 -9 0 -11 rrcurveto
          0 -11 -9 -9 -11 0 rrcurveto
          endchar
        </CharString>
        <CharString name="meem-ar.medi">
          240 -20 0 rmoveto
          260 0 rlineto
          0 70 rlineto
          -41 0 rlineto
          0 6 1 7 0 7 rrcurveto
          0 50 -45 40 -55 0 rrcurveto
          -55 0 -45 -40 0 -50 rrcurveto
          0 -7 1 -7 1 -6 rrcurveto
          -22 0 rlineto
          120 0 rmoveto
          -11 0 -9 9 0 11 rrcurveto
          0 11 9 9 11 0 rrcurveto
          11 0 9 -9 0 -11 rrcurveto
          0 -11 -9 -9 -11 0 rrcurveto
          endchar
        </CharString>
        <CharString name="meem-ar.medi.1">
          240 100 -40 rmoveto
          43 0 30 13 16 27 rrcurveto
          51 0 rlineto
          0 70 rlineto
          -43 0 rlineto
          -10 40 -39 30 -48 0 rrcurveto
          -48 0 -39 -30 -11 -40 rrcurveto
          -22 0 rlineto
          0 -70 rlineto
          31 0 rlineto
          16 -27 30 -13 43 0 rrcurveto
          0 70 rmoveto
          -11 0 -9 8 0 11 rrcurveto
          0 2 rlineto
          0 11 9 8 11 0 rrcurveto
          11 0 9 -9 0 -11 rrcurveto
          0 -11 -9 -9 -11 0 rrcurveto
          endchar
        </CharString>
        <CharString name="nine-ar">
          250 210 350 rmoveto
          -210 0 rlineto
          0 -210 rlineto
          140 0 rlineto
          0 -140 rlineto
          70 0 rlineto
          -70 280 rmoveto
          0 -70 rlineto
          -70 0 rlineto
          0 70 rlineto
          70 0 rlineto
          endchar
        </CharString>
        <CharString name="noon-ar">
          190 -130 -250 rmoveto
          242 0 rlineto
          23 0 15 15 0 25 rrcurveto
          0 270 rlineto
          -80 80 rlineto
          -40 -70 rlineto
          40 -40 rlineto
          0 -210 rlineto
          -100 0 rlineto
          -20 0 -17 5 -11 15 rrcurveto
          158 365 rmoveto
          47 79 rlineto
          -17 10 rlineto
          -47 -79 rlineto
          endchar
        </CharString>
        <CharString name="noonghunna-ar">
          190 -130 -250 rmoveto
          242 0 rlineto
          23 0 15 15 0 25 rrcurveto
          0 270 rlineto
          -80 80 rlineto
          -40 -70 rlineto
          40 -40 rlineto
          0 -210 rlineto
          -100 0 rlineto
          -20 0 -17 5 -11 15 rrcurveto
          endchar
        </CharString>
        <CharString name="noonghunna-ar.fina">
          190 -130 -250 rmoveto
          242 0 rlineto
          23 0 15 15 0 25 rrcurveto
          0 210 rlineto
          40 0 rlineto
          0 70 rlineto
          -50 0 rlineto
          -70 70 rlineto
          -40 -70 rlineto
          40 -40 rlineto
          0 -210 rlineto
          -100 0 rlineto
          -20 0 -17 5 -11 15 rrcurveto
          endchar
        </CharString>
        <CharString name="one-ar">
          110 0 350 rmoveto
          0 -350 rlineto
          70 0 rlineto
          0 350 rlineto
          endchar
        </CharString>
        <CharString name="qaf-ar">
          296 -64 -250 rmoveto
          299 0 rlineto
          6 0 15 0 0 21 rrcurveto
          0 139 -70 20 -44 0 rrcurveto
          -51 0 rlineto
          88 97 rlineto
          0 0 rlineto
          14 15 7 21 0 27 rrcurveto
          0 50 -45 40 -55 0 rrcurveto
          -55 0 -45 -40 0 -50 rrcurveto
          0 -60 45 -30 55 0 rrcurveto
          11 0 10 1 9 1 rrcurveto
          -130 -142 rlineto
          132 0 rlineto
          22 0 18 -18 0 -22 rrcurveto
          -196 0 rlineto
          86 415 rmoveto
          47 79 rlineto
          -17 10 rlineto
          -47 -79 rlineto
          63 -10 rmoveto
          47 79 rlineto
          -17 10 rlineto
          -47 -79 rlineto
          9 -175 rmoveto
          -11 0 -9 9 0 11 rrcurveto
          0 11 9 9 11 0 rrcurveto
          11 0 9 -9 0 -11 rrcurveto
          0 -11 -9 -9 -11 0 rrcurveto
          endchar
        </CharString>
        <CharString name="qafDotabove-ar">
          296 -64 -250 rmoveto
          299 0 rlineto
          6 0 15 0 0 21 rrcurveto
          0 139 -70 20 -44 0 rrcurveto
          -51 0 rlineto
          88 97 rlineto
          0 0 rlineto
          14 15 7 21 0 27 rrcurveto
          0 50 -45 40 -55 0 rrcurveto
          -55 0 -45 -40 0 -50 rrcurveto
          0 -60 45 -30 55 0 rrcurveto
          11 0 10 1 9 1 rrcurveto
          -130 -142 rlineto
          132 0 rlineto
          22 0 18 -18 0 -22 rrcurveto
          -196 0 rlineto
          124 415 rmoveto
          47 79 rlineto
          -17 10 rlineto
          -47 -79 rlineto
          17 -175 rmoveto
          -11 0 -9 9 0 11 rrcurveto
          0 11 9 9 11 0 rrcurveto
          11 0 9 -9 0 -11 rrcurveto
          0 -11 -9 -9 -11 0 rrcurveto
          endchar
        </CharString>
        <CharString name="qafDotless-ar">
          296 -64 -250 rmoveto
          299 0 rlineto
          6 0 15 0 0 21 rrcurveto
          0 139 -70 20 -44 0 rrcurveto
          -51 0 rlineto
          88 97 rlineto
          0 0 rlineto
          14 15 7 21 0 27 rrcurveto
          0 50 -45 40 -55 0 rrcurveto
          -55 0 -45 -40 0 -50 rrcurveto
          0 -60 45 -30 55 0 rrcurveto
          11 0 10 1 9 1 rrcurveto
          -130 -142 rlineto
          132 0 rlineto
          22 0 18 -18 0 -22 rrcurveto
          -196 0 rlineto
          124 250 rmoveto
          -11 0 -9 9 0 11 rrcurveto
          0 11 9 9 11 0 rrcurveto
          11 0 9 -9 0 -11 rrcurveto
          0 -11 -9 -9 -11 0 rrcurveto
          endchar
        </CharString>
        <CharString name="qafDotless-ar.fina">
          256 100 0 rmoveto
          27 0 rlineto
          -127 -140 rlineto
          132 0 rlineto
          22 0 18 -18 0 -22 rrcurveto
          -196 0 rlineto
          -40 -70 rlineto
          299 0 rlineto
          6 0 15 0 0 21 rrcurveto
          0 139 -70 20 -44 0 rrcurveto
          -51 0 rlineto
          64 70 rlineto
          101 0 rlineto
          0 70 rlineto
          -57 0 rlineto
          1 6 0 7 0 7 rrcurveto
          0 50 -45 40 -55 0 rrcurveto
          -55 0 -45 -40 0 -50 rrcurveto
          0 -60 45 -30 55 0 rrcurveto
          0 70 rmoveto
          -11 0 -9 9 0 11 rrcurveto
          0 11 9 9 11 0 rrcurveto
          11 0 9 -9 0 -11 rrcurveto
          0 -11 -9 -9 -11 0 rrcurveto
          endchar
        </CharString>
        <CharString name="reh-ar">
          312 -63 -110 rmoveto
          339 0 rlineto
          6 0 15 0 0 21 rrcurveto
          0 139 -69 43 -147 47 rrcurveto
          -80 -140 rlineto
          172 0 rlineto
          22 0 18 -18 0 -22 rrcurveto
          -236 0 rlineto
          endchar
        </CharString>
        <CharString name="reh-ar.1">
          312 -63 -110 rmoveto
          339 0 rlineto
          6 0 15 0 0 21 rrcurveto
          0 139 -68 46 -168 9 rrcurveto
          -60 -105 rlineto
          172 0 rlineto
          22 0 18 -18 0 -22 rrcurveto
          -236 0 rlineto
          endchar
        </CharString>
        <CharString name="reh-ar.fina">
          283 -63 -110 rmoveto
          339 0 rlineto
          6 0 15 0 0 21 rrcurveto
          0 36 -5 30 -9 24 rrcurveto
          0 69 rlineto
          -50 0 rlineto
          -35 29 -51 20 -66 21 rrcurveto
          -80 -140 rlineto
          172 0 rlineto
          22 0 18 -18 0 -22 rrcurveto
          -236 0 rlineto
          endchar
        </CharString>
        <CharString name="reh-ar.fina.1">
          283 -63 -110 rmoveto
          339 0 rlineto
          6 0 15 0 0 21 rrcurveto
          0 36 -4 29 -10 25 rrcurveto
          0 69 rlineto
          -61 0 rlineto
          -37 21 -53 10 -71 4 rrcurveto
          -60 -105 rlineto
          172 0 rlineto
          22 0 18 -18 0 -22 rrcurveto
          -236 0 rlineto
          endchar
        </CharString>
        <CharString name="sad-ar">
          740 -130 -250 rmoveto
          242 0 rlineto
          23 0 15 15 0 25 rrcurveto
          0 210 rlineto
          529 0 rlineto
          6 0 15 0 0 21 rrcurveto
          0 139 -70 20 -44 0 rrcurveto
          -436 0 rlineto
          -80 80 rlineto
          -40 -70 rlineto
          40 -40 rlineto
          0 -330 rlineto
          -100 0 rlineto
          -20 0 -17 5 -11 15 rrcurveto
          228 230 rmoveto
          0 40 rlineto
          426 0 rlineto
          22 0 18 -18 0 -22 rrcurveto
          -466 0 rlineto
          endchar
        </CharString>
        <CharString name="sad-ar.1">
          740 -130 -250 rmoveto
          242 0 rlineto
          23 0 15 15 0 25 rrcurveto
          0 210 rlineto
          529 0 rlineto
          6 0 15 0 0 21 rrcurveto
          0 139 -70 20 -44 0 rrcurveto
          -436 0 rlineto
          0 70 rlineto
          -80 -20 rlineto
          0 -410 rlineto
          -100 0 rlineto
          -20 0 -17 5 -11 15 rrcurveto
          228 230 rmoveto
          0 40 rlineto
          426 0 rlineto
          22 0 18 -18 0 -22 rrcurveto
          -466 0 rlineto
          endchar
        </CharString>
        <CharString name="sad-ar.fina">
          740 -130 -250 rmoveto
          242 0 rlineto
          23 0 15 15 0 25 rrcurveto
          0 210 rlineto
          590 0 rlineto
          0 70 rlineto
          -43 0 rlineto
          -15 95 -58 15 -38 0 rrcurveto
          -436 0 rlineto
          -80 80 rlineto
          -40 -70 rlineto
          40 -40 rlineto
          0 -330 rlineto
          -100 0 rlineto
          -20 0 -17 5 -11 15 rrcurveto
          228 230 rmoveto
          0 40 rlineto
          426 0 rlineto
          22 0 18 -18 0 -22 rrcurveto
          -466 0 rlineto
          endchar
        </CharString>
        <CharString name="sad-ar.fina.1">
          740 -130 -250 rmoveto
          242 0 rlineto
          23 0 15 15 0 25 rrcurveto
          0 210 rlineto
          590 0 rlineto
          0 70 rlineto
          -43 0 rlineto
          -15 95 -58 15 -38 0 rrcurveto
          -436 0 rlineto
          0 70 rlineto
          -80 -20 rlineto
          0 -410 rlineto
          -100 0 rlineto
          -20 0 -17 5 -11 15 rrcurveto
          228 230 rmoveto
          0 40 rlineto
          426 0 rlineto
          22 0 18 -18 0 -22 rrcurveto
          -466 0 rlineto
          endchar
        </CharString>
        <CharString name="sad-ar.init">
          670 46 0 rmoveto
          563 0 rlineto
          6 0 15 0 0 21 rrcurveto
          0 139 -70 20 -44 0 rrcurveto
          -436 0 rlineto
          0 70 rlineto
          -80 -20 rlineto
          0 -160 rlineto
          -20 0 rlineto
          0 -70 rlineto
          66 0 rlineto
          34 110 rmoveto
          426 0 rlineto
          22 0 18 -18 0 -22 rrcurveto
          -466 0 rlineto
          0 40 rlineto
          endchar
        </CharString>
        <CharString name="sad-ar.medi">
          670 46 0 rmoveto
          624 0 rlineto
          0 70 rlineto
          -43 0 rlineto
          -15 95 -58 15 -38 0 rrcurveto
          -436 0 rlineto
          0 70 rlineto
          -80 -20 rlineto
          0 -160 rlineto
          -20 0 rlineto
          0 -70 rlineto
          66 0 rlineto
          34 110 rmoveto
          426 0 rlineto
          22 0 18 -18 0 -22 rrcurveto
          -466 0 rlineto
          0 40 rlineto
          endchar
        </CharString>
        <CharString name="seen-ar">
          430 -130 -250 rmoveto
          242 0 rlineto
          23 0 15 15 0 25 rrcurveto
          0 210 rlineto
          219 0 rlineto
          6 0 15 0 0 11 rrcurveto
          0 259 rlineto
          -80 -20 rlineto
          0 -180 rlineto
          -22 0 -18 18 0 22 rrcurveto
          0 130 rlineto
          -80 -20 rlineto
          0 -150 rlineto
          -22 0 -18 18 0 22 rrcurveto
          0 100 rlineto
          -80 -20 rlineto
          0 -370 rlineto
          -100 0 rlineto
          -20 0 -17 5 -11 15 rrcurveto
          endchar
        </CharString>
        <CharString name="seen-ar.1">
          430 -130 -250 rmoveto
          242 0 rlineto
          23 0 15 15 0 25 rrcurveto
          0 210 rlineto
          219 0 rlineto
          6 0 15 0 0 11 rrcurveto
          0 279 rlineto
          -80 -20 rlineto
          0 -200 rlineto
          -22 0 -18 18 0 22 rrcurveto
          0 150 rlineto
          -80 -20 rlineto
          0 -170 rlineto
          -22 0 -18 18 0 22 rrcurveto
          0 120 rlineto
          -80 -20 rlineto
          0 -390 rlineto
          -100 0 rlineto
          -20 0 -17 5 -11 15 rrcurveto
          endchar
        </CharString>
        <CharString name="seen-ar.2">
          430 -130 -250 rmoveto
          242 0 rlineto
          23 0 15 15 0 25 rrcurveto
          0 210 rlineto
          219 0 rlineto
          6 0 15 0 0 11 rrcurveto
          0 299 rlineto
          -80 -20 rlineto
          0 -220 rlineto
          -22 0 -18 18 0 22 rrcurveto
          0 170 rlineto
          -80 -20 rlineto
          0 -190 rlineto
          -22 0 -18 18 0 22 rrcurveto
          0 140 rlineto
          -80 -20 rlineto
          0 -410 rlineto
          -100 0 rlineto
          -20 0 -17 5 -11 15 rrcurveto
          endchar
        </CharString>
        <CharString name="seen-ar.3">
          430 -130 -250 rmoveto
          242 0 rlineto
          23 0 15 15 0 25 rrcurveto
          0 210 rlineto
          219 0 rlineto
          6 0 15 0 0 11 rrcurveto
          0 219 rlineto
          -80 -20 rlineto
          0 -140 rlineto
          -22 0 -18 18 0 22 rrcurveto
          0 120 rlineto
          -80 -20 rlineto
          0 -140 rlineto
          -22 0 -18 18 0 22 rrcurveto
          0 120 rlineto
          -80 -20 rlineto
          0 -390 rlineto
          -100 0 rlineto
          -20 0 -17 5 -11 15 rrcurveto
          endchar
        </CharString>
        <CharString name="seen-ar.4">
          430 -130 -250 rmoveto
          242 0 rlineto
          23 0 15 15 0 25 rrcurveto
          0 210 rlineto
          219 0 rlineto
          6 0 15 0 0 11 rrcurveto
          0 239 rlineto
          -80 -20 rlineto
          0 -160 rlineto
          -22 0 -18 18 0 22 rrcurveto
          0 140 rlineto
          -80 -20 rlineto
          0 -160 rlineto
          -22 0 -18 18 0 22 rrcurveto
          0 140 rlineto
          -80 -20 rlineto
          0 -410 rlineto
          -100 0 rlineto
          -20 0 -17 5 -11 15 rrcurveto
          endchar
        </CharString>
        <CharString name="seen-ar.5">
          430 -130 -250 rmoveto
          242 0 rlineto
          23 0 15 15 0 25 rrcurveto
          0 210 rlineto
          219 0 rlineto
          6 0 15 0 0 11 rrcurveto
          0 259 rlineto
          -80 -20 rlineto
          0 -180 rlineto
          -22 0 -18 18 0 22 rrcurveto
          0 160 rlineto
          -80 -20 rlineto
          0 -180 rlineto
          -22 0 -18 18 0 22 rrcurveto
          0 160 rlineto
          -80 -20 rlineto
          0 -430 rlineto
          -100 0 rlineto
          -20 0 -17 5 -11 15 rrcurveto
          endchar
        </CharString>
        <CharString name="seen-ar.6">
          370 -130 -250 rmoveto
          242 0 rlineto
          23 0 15 15 0 25 rrcurveto
          0 210 rlineto
          159 0 rlineto
          6 0 15 0 0 11 rrcurveto
          0 166 rlineto
          -80 -20 rlineto
          0 -87 rlineto
          -70 70 rlineto
          -40 -70 rlineto
          0 0 rlineto
          -70 70 rlineto
          -40 -70 rlineto
          40 -40 rlineto
          0 -210 rlineto
          -100 0 rlineto
          -20 0 -17 5 -11 15 rrcurveto
          endchar
        </CharString>
        <CharString name="seen-ar.fina">
          430 -130 -250 rmoveto
          242 0 rlineto
          23 0 15 15 0 25 rrcurveto
          0 210 rlineto
          280 0 rlineto
          0 70 rlineto
          -22 0 -18 18 0 22 rrcurveto
          0 160 rlineto
          -80 -20 rlineto
          0 -180 rlineto
          -22 0 -18 18 0 22 rrcurveto
          0 130 rlineto
          -80 -20 rlineto
          0 -150 rlineto
          -22 0 -18 18 0 22 rrcurveto
          0 100 rlineto
          -80 -20 rlineto
          0 -370 rlineto
          -100 0 rlineto
          -20 0 -17 5 -11 15 rrcurveto
          endchar
        </CharString>
        <CharString name="seen-ar.fina.1">
          430 -130 -250 rmoveto
          242 0 rlineto
          23 0 15 15 0 25 rrcurveto
          0 210 rlineto
          280 0 rlineto
          0 70 rlineto
          -22 0 -18 18 0 22 rrcurveto
          0 180 rlineto
          -80 -20 rlineto
          0 -200 rlineto
          -22 0 -18 18 0 22 rrcurveto
          0 150 rlineto
          -80 -20 rlineto
          0 -170 rlineto
          -22 0 -18 18 0 22 rrcurveto
          0 120 rlineto
          -80 -20 rlineto
          0 -390 rlineto
          -100 0 rlineto
          -20 0 -17 5 -11 15 rrcurveto
          endchar
        </CharString>
        <CharString name="seen-ar.fina.2">
          430 -130 -250 rmoveto
          242 0 rlineto
          23 0 15 15 0 25 rrcurveto
          0 210 rlineto
          280 0 rlineto
          0 70 rlineto
          -22 0 -18 18 0 22 rrcurveto
          0 200 rlineto
          -80 -20 rlineto
          0 -220 rlineto
          -22 0 -18 18 0 22 rrcurveto
          0 170 rlineto
          -80 -20 rlineto
          0 -190 rlineto
          -22 0 -18 18 0 22 rrcurveto
          0 140 rlineto
          -80 -20 rlineto
          0 -410 rlineto
          -100 0 rlineto
          -20 0 -17 5 -11 15 rrcurveto
          endchar
        </CharString>
        <CharString name="seen-ar.fina.3">
          430 -130 -250 rmoveto
          242 0 rlineto
          23 0 15 15 0 25 rrcurveto
          0 210 rlineto
          280 0 rlineto
          0 70 rlineto
          -22 0 -18 18 0 22 rrcurveto
          0 120 rlineto
          -80 -20 rlineto
          0 -140 rlineto
          -22 0 -18 18 0 22 rrcurveto
          0 120 rlineto
          -80 -20 rlineto
          0 -140 rlineto
          -22 0 -18 18 0 22 rrcurveto
          0 120 rlineto
          -80 -20 rlineto
          0 -390 rlineto
          -100 0 rlineto
          -20 0 -17 5 -11 15 rrcurveto
          endchar
        </CharString>
        <CharString name="seen-ar.fina.4">
          430 -130 -250 rmoveto
          242 0 rlineto
          23 0 15 15 0 25 rrcurveto
          0 210 rlineto
          280 0 rlineto
          0 70 rlineto
          -22 0 -18 18 0 22 rrcurveto
          0 140 rlineto
          -80 -20 rlineto
          0 -160 rlineto
          -22 0 -18 18 0 22 rrcurveto
          0 140 rlineto
          -80 -20 rlineto
          0 -160 rlineto
          -22 0 -18 18 0 22 rrcurveto
          0 140 rlineto
          -80 -20 rlineto
          0 -410 rlineto
          -100 0 rlineto
          -20 0 -17 5 -11 15 rrcurveto
          endchar
        </CharString>
        <CharString name="seen-ar.fina.5">
          430 -130 -250 rmoveto
          242 0 rlineto
          23 0 15 15 0 25 rrcurveto
          0 210 rlineto
          280 0 rlineto
          0 70 rlineto
          -22 0 -18 18 0 22 rrcurveto
          0 160 rlineto
          -80 -20 rlineto
          0 -180 rlineto
          -22 0 -18 18 0 22 rrcurveto
          0 160 rlineto
          -80 -20 rlineto
          0 -180 rlineto
          -22 0 -18 18 0 22 rrcurveto
          0 160 rlineto
          -80 -20 rlineto
          0 -430 rlineto
          -100 0 rlineto
          -20 0 -17 5 -11 15 rrcurveto
          endchar
        </CharString>
        <CharString name="seen-ar.init">
          360 -20 0 rmoveto
          319 0 rlineto
          6 0 15 0 0 11 rrcurveto
          0 259 rlineto
          -80 -20 rlineto
          0 -180 rlineto
          -22 0 -18 18 0 22 rrcurveto
          0 130 rlineto
          -80 -20 rlineto
          0 -150 rlineto
          -22 0 -18 18 0 22 rrcurveto
          0 100 rlineto
          -80 -20 rlineto
          0 -120 rlineto
          -20 0 rlineto
          endchar
        </CharString>
        <CharString name="seen-ar.init.1">
          360 -20 0 rmoveto
          319 0 rlineto
          6 0 15 0 0 11 rrcurveto
          0 279 rlineto
          -80 -20 rlineto
          0 -200 rlineto
          -22 0 -18 18 0 22 rrcurveto
          0 150 rlineto
          -80 -20 rlineto
          0 -170 rlineto
          -22 0 -18 18 0 22 rrcurveto
          0 120 rlineto
          -80 -20 rlineto
          0 -140 rlineto
          -20 0 rlineto
          endchar
        </CharString>
        <CharString name="seen-ar.init.2">
          360 -20 0 rmoveto
          319 0 rlineto
          6 0 15 0 0 11 rrcurveto
          0 299 rlineto
          -80 -20 rlineto
          0 -220 rlineto
          -22 0 -18 18 0 22 rrcurveto
          0 170 rlineto
          -80 -20 rlineto
          0 -190 rlineto
          -22 0 -18 18 0 22 rrcurveto
          0 140 rlineto
          -80 -20 rlineto
          0 -160 rlineto
          -20 0 rlineto
          endchar
        </CharString>
        <CharString name="seen-ar.init.3">
          360 -20 0 rmoveto
          319 0 rlineto
          6 0 15 0 0 11 rrcurveto
          0 219 rlineto
          -80 -20 rlineto
          0 -140 rlineto
          -22 0 -18 18 0 22 rrcurveto
          0 120 rlineto
          -80 -20 rlineto
          0 -140 rlineto
          -22 0 -18 18 0 22 rrcurveto
          0 120 rlineto
          -80 -20 rlineto
          0 -140 rlineto
          -20 0 rlineto
          endchar
        </CharString>
        <CharString name="seen-ar.init.4">
          360 -20 0 rmoveto
          319 0 rlineto
          6 0 15 0 0 11 rrcurveto
          0 239 rlineto
          -80 -20 rlineto
          0 -160 rlineto
          -22 0 -18 18 0 22 rrcurveto
          0 140 rlineto
          -80 -20 rlineto
          0 -160 rlineto
          -22 0 -18 18 0 22 rrcurveto
          0 140 rlineto
          -80 -20 rlineto
          0 -160 rlineto
          -20 0 rlineto
          endchar
        </CharString>
        <CharString name="seen-ar.init.5">
          360 -20 0 rmoveto
          319 0 rlineto
          6 0 15 0 0 11 rrcurveto
          0 259 rlineto
          -80 -20 rlineto
          0 -180 rlineto
          -22 0 -18 18 0 22 rrcurveto
          0 160 rlineto
          -80 -20 rlineto
          0 -180 rlineto
          -22 0 -18 18 0 22 rrcurveto
          0 160 rlineto
          -80 -20 rlineto
          0 -180 rlineto
          -20 0 rlineto
          endchar
        </CharString>
        <CharString name="seen-ar.init.6">
          340 -20 0 rmoveto
          299 0 rlineto
          6 0 15 0 0 11 rrcurveto
          0 166 rlineto
          -80 -20 rlineto
          0 -87 rlineto
          -70 70 rlineto
          -40 -70 rlineto
          -70 70 rlineto
          -40 -70 rlineto
          -20 0 rlineto
          endchar
        </CharString>
        <CharString name="seen-ar.medi">
          360 -20 0 rmoveto
          380 0 rlineto
          0 70 rlineto
          -22 0 -18 18 0 22 rrcurveto
          0 160 rlineto
          -80 -20 rlineto
          0 -180 rlineto
          -22 0 -18 18 0 22 rrcurveto
          0 130 rlineto
          -80 -20 rlineto
          0 -150 rlineto
          -22 0 -18 18 0 22 rrcurveto
          0 100 rlineto
          -80 -20 rlineto
          0 -120 rlineto
          -20 0 rlineto
          endchar
        </CharString>
        <CharString name="seen-ar.medi.1">
          360 -20 0 rmoveto
          380 0 rlineto
          0 70 rlineto
          -22 0 -18 18 0 22 rrcurveto
          0 180 rlineto
          -80 -20 rlineto
          0 -200 rlineto
          -22 0 -18 18 0 22 rrcurveto
          0 150 rlineto
          -80 -20 rlineto
          0 -170 rlineto
          -22 0 -18 18 0 22 rrcurveto
          0 120 rlineto
          -80 -20 rlineto
          0 -140 rlineto
          -20 0 rlineto
          endchar
        </CharString>
        <CharString name="seen-ar.medi.2">
          360 -20 0 rmoveto
          380 0 rlineto
          0 70 rlineto
          -22 0 -18 18 0 22 rrcurveto
          0 200 rlineto
          -80 -20 rlineto
          0 -220 rlineto
          -22 0 -18 18 0 22 rrcurveto
          0 170 rlineto
          -80 -20 rlineto
          0 -190 rlineto
          -22 0 -18 18 0 22 rrcurveto
          0 140 rlineto
          -80 -20 rlineto
          0 -160 rlineto
          -20 0 rlineto
          endchar
        </CharString>
        <CharString name="seen-ar.medi.3">
          360 -20 0 rmoveto
          380 0 rlineto
          0 70 rlineto
          -22 0 -18 18 0 22 rrcurveto
          0 120 rlineto
          -80 -20 rlineto
          0 -140 rlineto
          -22 0 -18 18 0 22 rrcurveto
          0 120 rlineto
          -80 -20 rlineto
          0 -140 rlineto
          -22 0 -18 18 0 22 rrcurveto
          0 120 rlineto
          -80 -20 rlineto
          0 -140 rlineto
          -20 0 rlineto
          endchar
        </CharString>
        <CharString name="seen-ar.medi.4">
          360 -20 0 rmoveto
          380 0 rlineto
          0 70 rlineto
          -22 0 -18 18 0 22 rrcurveto
          0 140 rlineto
          -80 -20 rlineto
          0 -160 rlineto
          -22 0 -18 18 0 22 rrcurveto
          0 140 rlineto
          -80 -20 rlineto
          0 -160 rlineto
          -22 0 -18 18 0 22 rrcurveto
          0 140 rlineto
          -80 -20 rlineto
          0 -160 rlineto
          -20 0 rlineto
          endchar
        </CharString>
        <CharString name="seen-ar.medi.5">
          360 -20 0 rmoveto
          380 0 rlineto
          0 70 rlineto
          -22 0 -18 18 0 22 rrcurveto
          0 160 rlineto
          -80 -20 rlineto
          0 -180 rlineto
          -22 0 -18 18 0 22 rrcurveto
          0 160 rlineto
          -80 -20 rlineto
          0 -180 rlineto
          -22 0 -18 18 0 22 rrcurveto
          0 160 rlineto
          -80 -20 rlineto
          0 -180 rlineto
          -20 0 rlineto
          endchar
        </CharString>
        <CharString name="seen-ar.medi.6">
          370 -20 0 rmoveto
          390 0 rlineto
          0 70 rlineto
          -40 0 rlineto
          -70 70 rlineto
          -40 -70 rlineto
          -70 70 rlineto
          -40 -70 rlineto
          -70 70 rlineto
          -40 -70 rlineto
          -20 0 rlineto
          endchar
        </CharString>
        <CharString name="seven-ar">
          250 0 0 rmoveto
          210 0 rlineto
          0 350 rlineto
          -70 0 rlineto
          0 -280 rlineto
          -70 0 rlineto
          0 280 rlineto
          -70 0 rlineto
          endchar
        </CharString>
        <CharString name="seven-ar.1">
          346 153 0 rmoveto
          33 0 rlineto
          120 327 rlineto
          -66 23 rlineto
          -87 -238 rlineto
          -87 238 rlineto
          -66 -23 rlineto
          120 -327 rlineto
          33 0 rlineto
          endchar
        </CharString>
        <CharString name="sheen-ar">
          430 -130 -250 rmoveto
          242 0 rlineto
          23 0 15 15 0 25 rrcurveto
          0 210 rlineto
          219 0 rlineto
          6 0 15 0 0 11 rrcurveto
          0 219 rlineto
          -80 -20 rlineto
          0 -140 rlineto
          -22 0 -18 18 0 22 rrcurveto
          0 120 rlineto
          -80 -20 rlineto
          0 -140 rlineto
          -22 0 -18 18 0 22 rrcurveto
          0 120 rlineto
          -80 -20 rlineto
          0 -390 rlineto
          -100 0 rlineto
          -20 0 -17 5 -11 15 rrcurveto
          250 460 rmoveto
          47 79 rlineto
          -17 10 rlineto
          -47 -79 rlineto
          63 -10 rmoveto
          47 79 rlineto
          -17 10 rlineto
          -47 -79 rlineto
          63 -10 rmoveto
          47 79 rlineto
          -17 10 rlineto
          -47 -79 rlineto
          endchar
        </CharString>
        <CharString name="six-ar">
          250 70 350 rmoveto
          -70 0 rlineto
          0 -161 rlineto
          140 0 rlineto
          0 -189 rlineto
          70 0 rlineto
          0 350 rlineto
          -70 0 rlineto
          0 -91 rlineto
          -70 0 rlineto
          endchar
        </CharString>
        <CharString name="six-ar.1">
          250 210 350 rmoveto
          -210 0 rlineto
          0 -70 rlineto
          140 0 rlineto
          0 -280 rlineto
          70 0 rlineto
          endchar
        </CharString>
        <CharString name="space">
          0 endchar
        </CharString>
        <CharString name="space.alt">
          40 endchar
        </CharString>
        <CharString name="tah-ar">
          750 0 0 rmoveto
          689 0 rlineto
          6 0 15 0 0 21 rrcurveto
          0 139 -70 20 -44 0 rrcurveto
          -436 0 rlineto
          0 380 rlineto
          -80 -20 rlineto
          0 -470 rlineto
          -40 0 rlineto
          120 0 rmoveto
          0 40 rlineto
          426 0 rlineto
          22 0 18 -18 0 -22 rrcurveto
          -466 0 rlineto
          endchar
        </CharString>
        <CharString name="tah-ar.fina">
          750 0 0 rmoveto
          750 0 rlineto
          0 70 rlineto
          -43 0 rlineto
          -15 95 -58 15 -38 0 rrcurveto
          -436 0 rlineto
          0 380 rlineto
          -80 -20 rlineto
          0 -470 rlineto
          -40 0 rlineto
          120 0 rmoveto
          0 40 rlineto
          426 0 rlineto
          22 0 18 -18 0 -22 rrcurveto
          -466 0 rlineto
          endchar
        </CharString>
        <CharString name="tah-ar.init">
          670 -20 0 rmoveto
          629 0 rlineto
          6 0 15 0 0 21 rrcurveto
          0 139 -70 20 -44 0 rrcurveto
          -436 0 rlineto
          0 380 rlineto
          -80 -20 rlineto
          0 -470 rlineto
          -20 0 rlineto
          100 0 rmoveto
          0 40 rlineto
          426 0 rlineto
          22 0 18 -18 0 -22 rrcurveto
          -466 0 rlineto
          endchar
        </CharString>
        <CharString name="tah-ar.medi">
          670 -20 0 rmoveto
          690 0 rlineto
          0 70 rlineto
          -43 0 rlineto
          -15 95 -58 15 -38 0 rrcurveto
          -436 0 rlineto
          0 380 rlineto
          -80 -20 rlineto
          0 -470 rlineto
          -20 0 rlineto
          100 0 rmoveto
          0 40 rlineto
          426 0 rlineto
          22 0 18 -18 0 -22 rrcurveto
          -466 0 rlineto
          endchar
        </CharString>
        <CharString name="teh-ar">
          600 0 0 rmoveto
          539 0 rlineto
          6 0 15 0 0 11 rrcurveto
          0 219 rlineto
          -80 -20 rlineto
          0 -140 rlineto
          -380 0 rlineto
          -22 0 -16 7 -10 13 rrcurveto
          190 110 rmoveto
          47 79 rlineto
          -17 10 rlineto
          -47 -79 rlineto
          63 -10 rmoveto
          47 79 rlineto
          -17 10 rlineto
          -47 -79 rlineto
          endchar
        </CharString>
        <CharString name="tehMarbuta-ar">
          240 100 0 rmoveto
          65 0 35 30 0 60 rrcurveto
          0 0 rlineto
          0 0 rlineto
          0 130 rlineto
          -20 -35 -40 -5 -40 0 rrcurveto
          0 0 rlineto
          0 0 rlineto
          -55 0 -45 -40 0 -50 rrcurveto
          0 -60 45 -30 55 0 rrcurveto
          -38 235 rmoveto
          47 79 rlineto
          -17 10 rlineto
          -47 -79 rlineto
          63 -10 rmoveto
          47 79 rlineto
          -17 10 rlineto
          -47 -79 rlineto
          9 -175 rmoveto
          -11 0 -9 9 0 11 rrcurveto
          0 11 9 9 11 0 rrcurveto
          11 0 9 -9 0 -11 rrcurveto
          0 -11 -9 -9 -11 0 rrcurveto
          endchar
        </CharString>
        <CharString name="thal-ar">
          600 0 0 rmoveto
          539 0 rlineto
          6 0 15 0 0 21 rrcurveto
          0 139 -70 20 -44 0 rrcurveto
          -326 0 rlineto
          27 70 rlineto
          -3 0 rlineto
          -80 -140 rlineto
          372 0 rlineto
          22 0 18 -18 0 -22 rrcurveto
          -436 0 rlineto
          240 185 rmoveto
          47 79 rlineto
          -17 10 rlineto
          -47 -79 rlineto
          endchar
        </CharString>
        <CharString name="theh-ar">
          600 0 0 rmoveto
          539 0 rlineto
          6 0 15 0 0 11 rrcurveto
          0 219 rlineto
          -80 -20 rlineto
          0 -140 rlineto
          -380 0 rlineto
          -22 0 -16 7 -10 13 rrcurveto
          167 110 rmoveto
          47 79 rlineto
          -17 10 rlineto
          -47 -79 rlineto
          63 -10 rmoveto
          47 79 rlineto
          -17 10 rlineto
          -47 -79 rlineto
          63 -10 rmoveto
          47 79 rlineto
          -17 10 rlineto
          -47 -79 rlineto
          endchar
        </CharString>
        <CharString name="three-ar">
          350 120 350 rmoveto
          0 -140 rlineto
          -50 0 rlineto
          0 140 rlineto
          -70 0 rlineto
          0 -350 rlineto
          310 0 rlineto
          0 70 rlineto
          -240 0 rlineto
          0 70 rlineto
          240 0 rlineto
          0 210 rlineto
          -70 0 rlineto
          0 -140 rlineto
          -50 0 rlineto
          0 140 rlineto
          endchar
        </CharString>
        <CharString name="three-ar.1">
          350 120 350 rmoveto
          0 -140 rlineto
          -50 0 rlineto
          0 140 rlineto
          -70 0 rlineto
          0 -350 rlineto
          70 0 rlineto
          0 140 rlineto
          240 0 rlineto
          0 210 rlineto
          -70 0 rlineto
          0 -140 rlineto
          -50 0 rlineto
          0 140 rlineto
          endchar
        </CharString>
        <CharString name="threedotsupabove-ar">
          0 17 0 rmoveto
          47 79 rlineto
          -17 10 rlineto
          -47 -79 rlineto
          63 -10 rmoveto
          47 79 rlineto
          -17 10 rlineto
          -47 -79 rlineto
          63 -10 rmoveto
          47 79 rlineto
          -17 10 rlineto
          -47 -79 rlineto
          endchar
        </CharString>
        <CharString name="threedotsupabove-ar.alt1">
          0 29 0 rmoveto
          16 0 13 13 0 16 rrcurveto
          0 16 -13 13 -16 0 rrcurveto
          -16 0 -13 -13 0 -16 rrcurveto
          0 -16 13 -13 16 0 rrcurveto
          82 0 rmoveto
          16 0 13 13 0 16 rrcurveto
          0 16 -13 13 -16 0 rrcurveto
          -16 0 -13 -13 0 -16 rrcurveto
          0 -16 13 -13 16 0 rrcurveto
          -43 70 rmoveto
          16 0 13 13 0 16 rrcurveto
          0 16 -13 13 -16 0 rrcurveto
          -16 0 -13 -13 0 -16 rrcurveto
          0 -16 13 -13 16 0 rrcurveto
          endchar
        </CharString>
        <CharString name="two-ar">
          250 140 350 rmoveto
          0 -91 rlineto
          -70 0 rlineto
          0 91 rlineto
          -70 0 rlineto
          0 -350 rlineto
          70 0 rlineto
          0 189 rlineto
          140 0 rlineto
          0 161 rlineto
          endchar
        </CharString>
        <CharString name="two-ar.1">
          250 0 350 rmoveto
          0 -350 rlineto
          70 0 rlineto
          0 280 rlineto
          140 0 rlineto
          0 70 rlineto
          endchar
        </CharString>
        <CharString name="twodotshorizontalabove-ar">
          0 17 0 rmoveto
          47 79 rlineto
          -17 10 rlineto
          -47 -79 rlineto
          63 -10 rmoveto
          47 79 rlineto
          -17 10 rlineto
          -47 -79 rlineto
          endchar
        </CharString>
        <CharString name="twodotshorizontalabove-ar.alt1">
          0 29 0 rmoveto
          16 0 13 13 0 16 rrcurveto
          0 16 -13 13 -16 0 rrcurveto
          -16 0 -13 -13 0 -16 rrcurveto
          0 -16 13 -13 16 0 rrcurveto
          82 0 rmoveto
          16 0 13 13 0 16 rrcurveto
          0 16 -13 13 -16 0 rrcurveto
          -16 0 -13 -13 0 -16 rrcurveto
          0 -16 13 -13 16 0 rrcurveto
          endchar
        </CharString>
        <CharString name="twodotshorizontalbelow-ar">
          0 17 0 rmoveto
          47 79 rlineto
          -17 10 rlineto
          -47 -79 rlineto
          63 -10 rmoveto
          47 79 rlineto
          -17 10 rlineto
          -47 -79 rlineto
          endchar
        </CharString>
        <CharString name="twodotshorizontalbelow-ar.alt1">
          0 29 0 rmoveto
          16 0 13 13 0 16 rrcurveto
          0 16 -13 13 -16 0 rrcurveto
          -16 0 -13 -13 0 -16 rrcurveto
          0 -16 13 -13 16 0 rrcurveto
          82 0 rmoveto
          16 0 13 13 0 16 rrcurveto
          0 16 -13 13 -16 0 rrcurveto
          -16 0 -13 -13 0 -16 rrcurveto
          0 -16 13 -13 16 0 rrcurveto
          endchar
        </CharString>
        <CharString name="twodotsverticalabove-ar">
          0 29 0 rmoveto
          47 79 rlineto
          -17 10 rlineto
          -47 -79 rlineto
          5 47 rmoveto
          47 79 rlineto
          -17 10 rlineto
          -47 -79 rlineto
          endchar
        </CharString>
        <CharString name="twodotsverticalabove-ar.alt1">
          0 29 0 rmoveto
          16 0 13 13 0 16 rrcurveto
          0 16 -13 13 -16 0 rrcurveto
          -16 0 -13 -13 0 -16 rrcurveto
          0 -16 13 -13 16 0 rrcurveto
          0 80 rmoveto
          16 0 13 13 0 16 rrcurveto
          0 16 -13 13 -16 0 rrcurveto
          -16 0 -13 -13 0 -16 rrcurveto
          0 -16 13 -13 16 0 rrcurveto
          endchar
        </CharString>
        <CharString name="waw-ar">
          270 -50 -110 rmoveto
          243 0 rlineto
          31 0 9 14 5 24 rrcurveto
          4 17 1 22 0 26 rrcurveto
          0 36 -4 37 -6 25 rrcurveto
          -15 56 -38 33 -50 0 rrcurveto
          -55 0 -45 -40 0 -50 rrcurveto
          0 -50 45 -40 55 0 rrcurveto
          10 0 10 1 10 3 rrcurveto
          2 -7 0 -8 0 -7 rrcurveto
          0 -7 0 -8 -2 -7 rrcurveto
          -110 0 rlineto
          -22 0 -16 7 -10 13 rrcurveto
          128 90 rmoveto
          -11 0 -9 9 0 11 rrcurveto
          0 11 9 9 11 0 rrcurveto
          11 0 9 -9 0 -11 rrcurveto
          0 -11 -9 -9 -11 0 rrcurveto
          endchar
        </CharString>
        <CharString name="waw-ar.1">
          270 -50 -110 rmoveto
          242 0 rlineto
          23 0 15 15 0 25 rrcurveto
          0 160 rlineto
          0 0 rlineto
          0 50 -45 40 -55 0 rrcurveto
          -55 0 -45 -40 0 -50 rrcurveto
          0 -50 45 -40 55 0 rrcurveto
          7 0 7 1 6 1 rrcurveto
          0 -42 rlineto
          -100 0 rlineto
          -22 0 -16 7 -10 13 rrcurveto
          128 90 rmoveto
          -11 0 -9 9 0 11 rrcurveto
          0 11 9 9 11 0 rrcurveto
          11 0 9 -9 0 -11 rrcurveto
          0 0 rlineto
          0 -11 -9 -9 -11 0 rrcurveto
          endchar
        </CharString>
        <CharString name="waw-ar.2">
          320 0 0 rmoveto
          243 0 rlineto
          31 0 9 14 5 24 rrcurveto
          4 17 1 22 0 26 rrcurveto
          0 36 -4 37 -6 25 rrcurveto
          -15 56 -38 33 -50 0 rrcurveto
          -55 0 -45 -40 0 -50 rrcurveto
          0 -50 45 -40 55 0 rrcurveto
          10 0 10 1 10 3 rrcurveto
          2 -7 0 -8 0 -7 rrcurveto
          0 -7 0 -8 -2 -7 rrcurveto
          -110 0 rlineto
          -22 0 -16 7 -10 13 rrcurveto
          128 90 rmoveto
          -11 0 -9 9 0 11 rrcurveto
          0 11 9 9 11 0 rrcurveto
          11 0 9 -9 0 -11 rrcurveto
          0 -11 -9 -9 -11 0 rrcurveto
          endchar
        </CharString>
        <CharString name="waw-ar.3">
          307 0 0 rmoveto
          242 0 rlineto
          23 0 15 15 0 25 rrcurveto
          0 160 rlineto
          0 0 rlineto
          0 50 -45 40 -55 0 rrcurveto
          -55 0 -45 -40 0 -50 rrcurveto
          0 -50 45 -40 55 0 rrcurveto
          7 0 7 1 6 1 rrcurveto
          0 -42 rlineto
          -100 0 rlineto
          -22 0 -16 7 -10 13 rrcurveto
          128 90 rmoveto
          -11 0 -9 9 0 11 rrcurveto
          0 11 9 9 11 0 rrcurveto
          11 0 9 -9 0 -11 rrcurveto
          0 0 rlineto
          0 -11 -9 -9 -11 0 rrcurveto
          endchar
        </CharString>
        <CharString name="waw-ar.fina">
          280 130 0 rmoveto
          31 0 rlineto
          1 -6 0 -6 0 -6 rrcurveto
          0 -7 0 -8 -2 -7 rrcurveto
          -110 0 rlineto
          -22 0 -16 7 -10 13 rrcurveto
          -52 -90 rlineto
          243 0 rlineto
          31 0 9 14 5 24 rrcurveto
          4 17 1 22 0 26 rrcurveto
          0 3 0 2 0 2 rrcurveto
          37 0 rlineto
          0 70 rlineto
          -43 0 rlineto
          -1 7 -2 7 -1 7 rrcurveto
          -15 56 -38 33 -50 0 rrcurveto
          -55 0 -45 -40 0 -50 rrcurveto
          0 -50 45 -40 55 0 rrcurveto
          0 70 rmoveto
          0 0 rlineto
          -11 0 -9 9 0 11 rrcurveto
          0 11 9 9 11 0 rrcurveto
          11 0 9 -9 0 -11 rrcurveto
          0 -11 -9 -9 -11 0 rrcurveto
          endchar
        </CharString>
        <CharString name="waw-ar.fina.1">
          270 -50 -110 rmoveto
          242 0 rlineto
          23 0 15 15 0 25 rrcurveto
          0 70 rlineto
          40 0 rlineto
          0 70 rlineto
          -40 0 rlineto
          0 20 rlineto
          0 0 rlineto
          0 50 -45 40 -55 0 rrcurveto
          -55 0 -45 -40 0 -50 rrcurveto
          0 -50 45 -40 55 0 rrcurveto
          20 0 rlineto
          0 -40 rlineto
          -100 0 rlineto
          -22 0 -16 7 -10 13 rrcurveto
          128 90 rmoveto
          0 0 rlineto
          -11 0 -9 9 0 11 rrcurveto
          0 11 9 9 11 0 rrcurveto
          11 0 9 -9 0 -11 rrcurveto
          0 0 rlineto
          0 -11 -9 -9 -11 0 rrcurveto
          endchar
        </CharString>
        <CharString name="wawHamzaabove-ar">
          270 -50 -110 rmoveto
          243 0 rlineto
          31 0 9 14 5 24 rrcurveto
          4 17 1 22 0 26 rrcurveto
          0 36 -4 37 -6 25 rrcurveto
          -15 56 -38 33 -50 0 rrcurveto
          -55 0 -45 -40 0 -50 rrcurveto
          0 -50 45 -40 55 0 rrcurveto
          10 0 10 1 10 3 rrcurveto
          2 -7 0 -8 0 -7 rrcurveto
          0 -7 0 -8 -2 -7 rrcurveto
          -110 0 rlineto
          -22 0 -16 7 -10 13 rrcurveto
          140 279 rmoveto
          -8 0 -5 7 0 8 rrcurveto
          0 9 7 9 15 0 rrcurveto
          5 0 7 -1 7 -3 rrcurveto
          -6 18 -14 11 -14 0 rrcurveto
          -32 0 -14 -33 8 -25 rrcurveto
          -11 0 rlineto
          -17 -29 rlineto
          108 0 rlineto
          17 29 rlineto
          -53 0 rlineto
          -12 -189 rmoveto
          -11 0 -9 9 0 11 rrcurveto
          0 11 9 9 11 0 rrcurveto
          11 0 9 -9 0 -11 rrcurveto
          0 -11 -9 -9 -11 0 rrcurveto
          endchar
        </CharString>
        <CharString name="yeh-ar">
          247 -33 -220 rmoveto
          202 0 rlineto
          23 0 15 15 0 25 rrcurveto
          0 96 rlineto
          0 25 -13 16 -35 0 rrcurveto
          -32 0 -22 6 -23 23 rrcurveto
          -31 31 rlineto
          -17 17 9 47 14 -14 rrcurveto
          52 -52 rlineto
          10 -10 9 -5 12 0 rrcurveto
          16 0 36 10 10 80 rrcurveto
          -3 -15 -14 -5 -9 0 rrcurveto
          -9 0 -5 5 -4 4 rrcurveto
          -64 64 rlineto
          -50 50 -44 -149 0 -49 rrcurveto
          0 -83 55 -20 72 -2 rrcurveto
          0 -40 rlineto
          -60 0 rlineto
          -20 0 -17 5 -11 15 rrcurveto
          endchar
        </CharString>
        <CharString name="yeh-farsi">
          247 -33 -220 rmoveto
          202 0 rlineto
          23 0 15 15 0 25 rrcurveto
          0 96 rlineto
          0 25 -13 16 -35 0 rrcurveto
          -32 0 -22 6 -23 23 rrcurveto
          -31 31 rlineto
          -17 17 9 47 14 -14 rrcurveto
          52 -52 rlineto
          10 -10 9 -5 12 0 rrcurveto
          16 0 36 10 10 80 rrcurveto
          -3 -15 -14 -5 -9 0 rrcurveto
          -9 0 -5 5 -4 4 rrcurveto
          -64 64 rlineto
          -50 50 -44 -149 0 -49 rrcurveto
          0 -83 55 -20 72 -2 rrcurveto
          0 -40 rlineto
          -60 0 rlineto
          -20 0 -17 5 -11 15 rrcurveto
          endchar
        </CharString>
        <CharString name="yehHamzaabove-ar">
          247 -33 -220 rmoveto
          202 0 rlineto
          23 0 15 15 0 25 rrcurveto
          0 96 rlineto
          0 25 -13 16 -35 0 rrcurveto
          -32 0 -22 6 -23 23 rrcurveto
          -31 31 rlineto
          -17 17 9 47 14 -14 rrcurveto
          52 -52 rlineto
          10 -10 9 -5 12 0 rrcurveto
          16 0 36 10 10 80 rrcurveto
          -3 -15 -14 -5 -9 0 rrcurveto
          -9 0 -5 5 -4 4 rrcurveto
          -64 64 rlineto
          -50 50 -44 -149 0 -49 rrcurveto
          0 -83 55 -20 72 -2 rrcurveto
          0 -40 rlineto
          -60 0 rlineto
          -20 0 -17 5 -11 15 rrcurveto
          51 357 rmoveto
          -8 0 -5 7 0 8 rrcurveto
          0 9 7 9 15 0 rrcurveto
          5 0 7 -1 7 -3 rrcurveto
          -6 18 -14 11 -14 0 rrcurveto
          -32 0 -14 -33 8 -25 rrcurveto
          -11 0 rlineto
          -17 -29 rlineto
          108 0 rlineto
          17 29 rlineto
          -53 0 rlineto
          endchar
        </CharString>
        <CharString name="zah-ar">
          750 0 0 rmoveto
          689 0 rlineto
          6 0 15 0 0 21 rrcurveto
          0 139 -70 20 -44 0 rrcurveto
          -436 0 rlineto
          0 380 rlineto
          -80 -20 rlineto
          0 -470 rlineto
          -40 0 rlineto
          120 0 rmoveto
          0 40 rlineto
          426 0 rlineto
          22 0 18 -18 0 -22 rrcurveto
          -466 0 rlineto
          230 185 rmoveto
          47 79 rlineto
          -17 10 rlineto
          -47 -79 rlineto
          endchar
        </CharString>
        <CharString name="zain-ar">
          312 -63 -110 rmoveto
          339 0 rlineto
          6 0 15 0 0 21 rrcurveto
          0 139 -69 43 -147 47 rrcurveto
          -80 -140 rlineto
          172 0 rlineto
          22 0 18 -18 0 -22 rrcurveto
          -236 0 rlineto
          140 255 rmoveto
          47 79 rlineto
          -17 10 rlineto
          -47 -79 rlineto
          endchar
        </CharString>
        <CharString name="zero-ar">
          110 0 210 rmoveto
          0 -70 rlineto
          70 0 rlineto
          0 70 rlineto
          endchar
        </CharString>
</ttFont>
